<?xml version="1.0" encoding="utf-8"?>
<!-- Generator: Adobe Illustrator 18.0.0, SVG Export Plug-In . SVG Version: 6.00 Build 0)  -->
<!DOCTYPE svg PUBLIC "-//W3C//DTD SVG 1.1//EN" "http://www.w3.org/Graphics/SVG/1.1/DTD/svg11.dtd">
<svg version="1.1" id="Layer_1" xmlns="http://www.w3.org/2000/svg" xmlns:xlink="http://www.w3.org/1999/xlink" x="0px" y="0px"
	 viewBox="0 0 50 50" enable-background="new 0 0 50 50" xml:space="preserve">
<rect x="14.1" y="7.9" fill="#FFFFFF" stroke="#000000" stroke-miterlimit="10" width="20.3" height="32.8"/>
<path fill="#FDE500" d="M207.1-0.1h-34.5c-4.3,0-7.9,3.5-7.9,7.9v34.5c0,4.3,3.5,7.9,7.9,7.9h34.5c4.3,0,7.9-3.5,7.9-7.9V7.7
	C215,3.4,211.4-0.1,207.1-0.1z"/>
<g>
	<path fill="#342226" d="M185.5,19.4l-1.5,4.5h3L185.5,19.4C185.5,19.3,185.5,19.3,185.5,19.4z"/>
	<path fill="#342226" d="M189.8,6.1c-11.3,0-20.5,7.3-20.5,16.2c0,5.8,3.8,10.8,9.5,13.7l-1.9,7.2c-0.1,0.2,0,0.4,0.1,0.6
		c0.1,0.1,0.3,0.2,0.4,0.2c0.1,0,0.3,0,0.4-0.1l8.3-5.6c1.2,0.2,2.4,0.3,3.7,0.3c11.3,0,20.5-7.3,20.5-16.2
		C210.3,13.3,201.2,6.1,189.8,6.1z M179.5,26.6c0,0.6-0.4,1-1,1c-0.6,0-1-0.4-1-1v-7.1h-2.1c-0.6,0-0.9-0.5-0.9-0.9
		c0-0.4,0.3-0.9,0.9-0.9h6.1c0.6,0,0.9,0.5,0.9,0.9c0,0.4-0.2,0.9-0.9,0.9h-2.1V26.6z M189,27.6c-0.5,0-0.8-0.2-1-0.7l-0.4-1.3h-4.1
		l-0.4,1.3c-0.2,0.5-0.5,0.7-0.9,0.7c-0.5,0-1-0.4-1-0.9c0-0.2,0.1-0.4,0.1-0.4l2.8-7.5c0.2-0.6,0.7-1.1,1.5-1.1
		c0.7,0,1.2,0.4,1.5,1.1l2.8,7.5c0.1,0.2,0.1,0.4,0.1,0.5C189.9,27.2,189.5,27.6,189,27.6z M196.5,26.6c0,0.4-0.3,0.9-0.9,0.9h-3.7
		c-0.6,0-1-0.4-1-1.1v-7.8c0-0.6,0.4-1,1-1c0.6,0,1,0.4,1,1v7.1h2.7c0.3,0,0.5,0.1,0.7,0.3C196.4,26.1,196.5,26.4,196.5,26.6z
		 M204.7,26.8c-0.1,0.7-0.8,0.8-1,0.8c-0.1,0-0.1,0-0.2,0c-0.4,0-0.6-0.3-0.9-0.8l-2.6-3.5l-0.7,0.7v2.6c0,0.5-0.4,0.9-1,0.9
		c-0.6,0-1-0.4-1-0.9v-8.1c0-0.6,0.4-1,1-1c0.6,0,1,0.4,1,1v3.1l3.5-3.6c0.2-0.2,0.4-0.4,0.8-0.4c0.5,0,1,0.3,0.9,0.9
		c0,0.3-0.2,0.4-0.5,0.8c-0.1,0.1-0.2,0.2-0.2,0.3l-2.4,2.4l2.8,3.7C204.5,26.1,204.7,26.4,204.7,26.8z"/>
</g>
<path fill="#36609F" d="M42.2,0H7.8C3.5,0,0,3.5,0,7.8v34.4C0,46.5,3.5,50,7.8,50h34.4c4.3,0,7.8-3.5,7.8-7.8V7.8
	C50,3.5,46.5,0,42.2,0z M30.4,25h-3.5c0,5.6,0,12.5,0,12.5h-5.2c0,0,0-6.8,0-12.5h-2.5v-4.4h2.5v-2.9c0-2,1-5.2,5.2-5.2l3.8,0v4.3
	c0,0-2.3,0-2.8,0c-0.5,0-1.1,0.2-1.1,1.2v2.6h4L30.4,25z"/>
<path fill="none" stroke="#000000" stroke-width="0.5" stroke-miterlimit="10" d="M-23.6,4h-28.9c-3.6,0-6.6,2.9-6.6,6.6v28.9
	c0,3.6,2.9,6.6,6.6,6.6h28.9c3.6,0,6.6-2.9,6.6-6.6V10.6C-17,6.9-19.9,4-23.6,4z"/>
<line fill="none" stroke="#000000" stroke-width="0.5" stroke-miterlimit="10" x1="-26.2" y1="12.5" x2="-51.2" y2="37.5"/>
<line fill="none" stroke="#000000" stroke-width="0.5" stroke-miterlimit="10" x1="-25.2" y1="37.5" x2="-50.2" y2="12.5"/>
</svg>
