<?xml version="1.0" encoding="utf-8"?>
<!-- Generator: Adobe Illustrator 18.0.0, SVG Export Plug-In . SVG Version: 6.00 Build 0)  -->
<!DOCTYPE svg PUBLIC "-//W3C//DTD SVG 1.1//EN" "http://www.w3.org/Graphics/SVG/1.1/DTD/svg11.dtd">
<svg version="1.1" id="Layer_1" xmlns="http://www.w3.org/2000/svg" xmlns:xlink="http://www.w3.org/1999/xlink" x="0px" y="0px"
	 viewBox="0 0 200 200" enable-background="new 0 0 200 200" xml:space="preserve">
<g>
	<g>
		<path fill="#FFFFFF" d="M450.2,255.7c31.5,0,57.2,25.6,57.2,57.2c0,31.5-25.6,57.2-57.2,57.2c-31.5,0-57.2-25.6-57.2-57.2
			C393.1,281.3,418.7,255.7,450.2,255.7 M450.2,249.7c-34.9,0-63.2,28.3-63.2,63.2s28.3,63.2,63.2,63.2c34.9,0,63.2-28.3,63.2-63.2
			S485.1,249.7,450.2,249.7L450.2,249.7z"/>
		<path fill="#FFFFFF" d="M391.6,289.9c0-0.1-0.5-7-4.6-15.6c-2.6-5.7-5.1-6.4-9.2-7.7c-2.1-0.7-4.6-1.4-7.3-3
			c-9.2-5.4-6.1-19.9-6-20.5l5.9,1.3l-2.9-0.7l2.9,0.6c0,0.1-2.2,10.9,3.1,14c2.1,1.2,4.1,1.9,6,2.5c4.5,1.4,9.1,2.9,12.8,10.9
			c4.5,9.7,5.1,17.4,5.1,17.7L391.6,289.9z"/>
		<path fill="#FFFFFF" d="M400.3,276.9c0-0.1-0.5-7-4.6-15.6c-2.6-5.7-5.1-6.4-9.2-7.7c-2.1-0.7-4.6-1.4-7.3-3
			c-9.2-5.4-6.1-19.9-6-20.5l5.9,1.3l-2.9-0.7l2.9,0.6c0,0.1-2.2,10.9,3.1,14c2.1,1.2,4.1,1.9,6,2.5c4.5,1.4,9.1,2.9,12.8,10.9
			c4.5,9.7,5.1,17.4,5.1,17.7L400.3,276.9z"/>
		<path fill="#FFFFFF" d="M412.1,265.9c0-0.1-0.5-7-4.6-15.6c-2.6-5.7-5.1-6.4-9.2-7.7c-2.1-0.7-4.6-1.4-7.3-3
			c-9.2-5.4-6.1-19.9-6-20.5l5.9,1.3l-2.9-0.7l2.9,0.6c0,0.1-2.2,10.9,3.1,14c2.1,1.2,4.1,1.9,6,2.5c4.5,1.4,9.1,2.9,12.8,10.9
			c4.5,9.7,5.1,17.4,5.1,17.7L412.1,265.9z"/>
		<path fill="#FFFFFF" d="M424.6,256.9c0-0.1-0.5-7-4.6-15.6c-2.6-5.7-5.1-6.4-9.2-7.7c-2.1-0.7-4.6-1.4-7.3-3
			c-9.2-5.4-6.1-19.9-6-20.5l5.9,1.3l-2.9-0.7l2.9,0.6c0,0.1-2.2,10.9,3.1,14c2.1,1.2,4.1,1.9,6,2.5c4.5,1.4,9.1,2.9,12.8,10.9
			c4.5,9.7,5.1,17.4,5.1,17.7L424.6,256.9z"/>
	</g>
	<path fill="#FFFFFF" d="M452.5,345.5c0.2,0,0.4,0,0.6,0c9.3,0,18.5,0,27.8,0c0.6,0,0.6,0,0.6-0.6c0-1.3,0-2.7,0-4
		c0-0.5,0-0.5-0.5-0.5c-7.3,0-14.6,0-21.9,0c-0.2,0-0.4,0-0.6,0c0.1-0.2,0.2-0.3,0.3-0.5c3.3-4.2,6.5-8.4,9.8-12.6
		c5.2-6.7,10.5-13.4,15.7-20.2c0.7-0.8,1.4-1,2.4-0.8c2.8,0.4,5.1,2.3,5.7,5.1c0.2,1,0.3,2.1,0.4,3.2c0.1,1.8,0,3.6,0,5.4
		c0,11.8,0,23.6,0,35.4c0,0.6,0,1.2,0,1.8c-13.4,0-26.8,0-40.2,0C452.5,353.3,452.5,349.4,452.5,345.5z"/>
	<path fill="#FFFFFF" d="M452.4,338.9c0-7.2,0-14.5,0-21.7c0,0-0.1,0-0.1,0c-0.1,0.1-0.2,0.2-0.3,0.4c-3.4,4.3-6.7,8.6-10.1,12.8
		c-0.4,0.5-0.8,1-1.3,1.3c-2,1.5-4.1,1.6-6.2,0.4c-1.2-0.7-2.3-1.5-3.4-2.3c-4.5-3.4-9.1-6.8-13.6-10.2c-1.1-0.8-1.9-1.9-2-3.3
		c-0.2-2.1,0.7-3.9,2.5-4.9c2.1-1.2,4.2-1.1,6.2,0.4c1.3,0.9,2.5,1.9,3.7,2.8c2.6,2,5.2,3.9,7.8,5.9c0.3,0.2,0.4,0.2,0.7-0.1
		c2.4-3.1,4.8-6.2,7.3-9.2c0.8-1,1.7-1.9,2.6-2.8c1.4-1.4,3.2-2,5.2-2.1c1.3,0,2.6,0,3.8,0c7.4,0,14.9,0,22.3,0c0.4,0,0.7,0,1.2,0.1
		c-0.1,0.2-0.2,0.3-0.2,0.4c-8.5,10.7-17,21.4-25.4,32C452.9,338.8,452.7,339.1,452.4,338.9z"/>
	<path fill="#FFFFFF" d="M434.8,292.5c0,2.2,0,4.5,0,6.7c0,0.6-0.1,1.1-0.1,1.7c-0.2,1.2-0.9,1.9-2.1,2.2c-0.7,0.1-1.3,0.2-2,0.2
		c-0.6,0-0.6,0-0.6,0.6c0,1.5,0,3,0,4.6c0,0.5,0,1-0.2,1.4c-0.4,1.5-1.9,2.1-3.2,1.3c-1.1-0.8-2.2-1.6-3.3-2.4
		c-2.4-1.8-4.8-3.6-7.2-5.3c-0.7-0.5-1-1.2-1-2c0-6.5,0-13,0-19.4c0-1,0-1,1-1c4.8,0,9.6,0,14.5,0c0.4,0,0.9,0.1,1.3,0.1
		c1.7,0.3,2.7,1.4,2.8,3.2c0.1,1.2,0.1,2.3,0.1,3.5C434.8,289.2,434.8,290.9,434.8,292.5z M420.1,283.3c0,0,0,0.1,0,0.1
		c0.4,0.3,0.7,0.5,1.1,0.8c2.3,1.5,4.5,3.1,6.8,4.6c1.4,0.9,2.1,2.2,2,3.9c-0.1,0.8,0,1.5,0,2.3c0,1.7,0,3.5,0,5.2
		c0,0.6,0,0.6,0.6,0.6c1.4,0.1,1.8-0.2,1.8-1.7c0-4.8,0-9.5,0-14.3c0-1.1-0.4-1.5-1.5-1.5c-3.5,0-6.9,0-10.4,0
		C420.3,283.3,420.2,283.3,420.1,283.3z"/>
	<path fill="#FFFFFF" d="M452,292.3c0.1-0.1,0.2-0.2,0.2-0.3c1.4-1.6,2.7-3.2,4.1-4.9c0.3-0.4,0.7-0.6,1.1-0.6c0.1,0,0.3,0,0.4,0
		c6.9,0,13.9,0,20.8,0c1.2,0,1.2,0,1.2,1.2c-0.1,1.9-0.1,3.9-0.3,5.8c-0.5,4.4-3.1,7.2-7.2,8.7c-4.4,1.6-9.6,0.2-12.5-3.2
		c-1.5-1.7-2.2-3.8-2.4-6c0-0.6,0-0.6-0.6-0.6c-1.5,0-3.1,0-4.6,0C452.2,292.3,452.1,292.3,452,292.3z"/>
	<path fill="#FFFFFF" d="M450.9,276.7c9.6,0,19.1,0,28.7,0c0,0.2,0,0.3,0,0.4c0,2.3,0,4.6,0,6.9c0,0.4-0.1,0.5-0.5,0.5
		c-1.9,0-3.8,0-5.7,0c-5.1,0-10.2,0-15.3,0c-0.3,0-0.6,0-0.9,0c-0.6,0-1-0.3-1.3-0.7c-1.7-2.3-3.3-4.6-4.9-6.9
		C451,276.8,451,276.8,450.9,276.7z"/>
	<path fill="#FFFFFF" d="M493.8,354.4h-6v-6h6V354.4z M481.8,354.4h-6v-6h6V354.4z M469.8,354.4h-6v-6h6V354.4z M457.8,354.4h-6v-6
		h6V354.4z M445.8,354.4h-6v-6h6V354.4z M433.8,354.4h-6v-6h6V354.4z M421.8,354.4h-6v-6h6V354.4z M409.8,354.4h-6v-6h6V354.4z"/>
</g>
<g>
	<g>
		<path fill="#FFFFFF" d="M331.6,168.2c0-0.1-0.5-7-4.6-15.6c-2.6-5.7-5.1-6.4-9.2-7.7c-2.1-0.7-4.6-1.4-7.3-3
			c-9.2-5.4-6.1-19.9-6-20.5l5.9,1.3l-2.9-0.7l2.9,0.6c0,0.1-2.2,10.9,3.1,14c2.1,1.2,4.1,1.9,6,2.5c4.5,1.4,9.1,2.9,12.8,10.9
			c4.5,9.7,5.1,17.4,5.1,17.7L331.6,168.2z"/>
		<path fill="#FFFFFF" d="M340.2,155.2c0-0.1-0.5-7-4.6-15.6c-2.6-5.7-5.1-6.4-9.2-7.7c-2.1-0.7-4.6-1.4-7.3-3
			c-9.2-5.4-6.1-19.9-6-20.5l5.9,1.3l-2.9-0.7l2.9,0.6c0,0.1-2.2,10.9,3.1,14c2.1,1.2,4.1,1.9,6,2.5c4.5,1.4,9.1,2.9,12.8,10.9
			c4.5,9.7,5.1,17.4,5.1,17.7L340.2,155.2z"/>
		<path fill="#FFFFFF" d="M352,144.2c0-0.1-0.5-7-4.6-15.6c-2.6-5.7-5.1-6.4-9.2-7.7c-2.1-0.7-4.6-1.4-7.3-3
			c-9.2-5.4-6.1-19.9-6-20.5l5.9,1.3L328,98l2.9,0.6c0,0.1-2.2,10.9,3.1,14c2.1,1.2,4.1,1.9,6,2.5c4.5,1.4,9.1,2.9,12.8,10.9
			c4.5,9.7,5.1,17.4,5.1,17.7L352,144.2z"/>
		<path fill="#FFFFFF" d="M364.5,135.2c0-0.1-0.5-7-4.6-15.6c-2.6-5.7-5.1-6.4-9.2-7.7c-2.1-0.7-4.6-1.4-7.3-3
			c-9.2-5.4-6.1-19.9-6-20.5l5.9,1.3l-2.9-0.7l2.9,0.6c0,0.1-2.2,10.9,3.1,14c2.1,1.2,4.1,1.9,6,2.5c4.5,1.4,9.1,2.9,12.8,10.9
			c4.5,9.7,5.1,17.4,5.1,17.7L364.5,135.2z"/>
		<path fill="#FFFFFF" d="M439.9,152.3c-0.1,0.1-0.2,0.2-0.3,0.3c-1,1.1-2,2.3-3,3.4c-0.3,0.3-0.5,0.6-0.8,0.9
			c7.2,9.5,11.4,21.4,11.4,34.2c0,31.5-25.6,57.2-57.2,57.2c-31.5,0-57.2-25.6-57.2-57.2c0-31.5,25.6-57.2,57.2-57.2
			c11.1,0,21.5,3.2,30.3,8.7c1.3-1.6,2.7-3.1,4-4.6c-9.9-6.4-21.6-10.1-34.3-10.1c-34.9,0-63.2,28.3-63.2,63.2
			c0,34.9,28.3,63.2,63.2,63.2c34.9,0,63.2-28.3,63.2-63.2C453.3,176.5,448.3,163,439.9,152.3z"/>
	</g>
	<g>
		<path fill="#FFFFFF" d="M380.3,184.8c1.6-1.7,2.9-3.3,4.4-4.7c0.4-0.4,1.1-0.6,1.6-0.6c2.1,0,4.2-0.1,6.2,0.3
			c2.1,0.4,3.4-0.3,4.7-1.9c3.3-3.9,6.7-7.6,10.3-11.7c-11.3-5-22.2-9.8-33.4-14.8c2-2.3,3.9-4.4,5.8-6.4c0.4-0.4,1.4-0.3,2-0.2
			c11.8,2.2,23.6,4.5,35.4,6.9c1.8,0.4,2.8,0.1,4-1.3c4.5-5.4,9.2-10.6,13.8-16c1.4-1.6,3-2.7,5.2-2.2c3.4,0.8,4.4,4.5,2,7.5
			c-3.3,4-6.7,7.8-10.1,11.7c-1.6,1.8-3.1,3.7-4.8,5.4c-1,1-1,1.8-0.6,3.1c3.8,11.2,7.4,22.4,11.2,33.6c0.5,1.5,0.5,2.6-0.7,3.8
			c-1.6,1.6-2.9,3.5-4.6,5.4c-6.3-10.4-12.5-20.5-18.9-31.1c-2.7,3.2-5,6.5-7.8,9.2c-3.4,3.3-4.6,6.7-2.8,11.1
			c1,2.4,0.5,4.6-1.6,6.4c-0.9,0.7-1.4,1.8-2.3,3c-2.1-3.4-3.8-6.4-5.8-9.3c-0.8-1.2-2-2.2-3.3-2.9
			C387,187.7,383.7,186.4,380.3,184.8z"/>
		<path fill="#FFFFFF" d="M439.2,132c0.3,0,0.7,0,1.1,0.1c3.4,0.8,4.4,4.5,2,7.5c-3.3,4-6.7,7.8-10.1,11.7c-1.6,1.8-3.1,3.7-4.8,5.4
			c-1,1-1,1.8-0.6,3.1c3.8,11.2,7.4,22.4,11.2,33.6c0.5,1.5,0.5,2.6-0.7,3.8c-1.6,1.6-2.9,3.5-4.6,5.4
			c-6.3-10.4-12.5-20.5-18.9-31.1c-2.7,3.2-5,6.5-7.8,9.2c-3.4,3.3-4.6,6.7-2.8,11.1c1,2.4,0.5,4.6-1.6,6.4c-0.9,0.7-1.4,1.8-2.3,3
			c-2.1-3.4-3.8-6.4-5.8-9.3c-0.8-1.2-2-2.2-3.3-2.9c-3.1-1.6-6.4-2.9-9.8-4.5c1.6-1.7,2.9-3.3,4.4-4.7c0.4-0.4,1-0.6,1.6-0.6
			c0,0,0,0,0,0c0.1,0,0.3,0,0.4,0c0.5,0,1,0,1.5,0c1.4,0,2.9,0,4.3,0.3c0.4,0.1,0.7,0.1,1.1,0.1c1.5,0,2.6-0.7,3.7-2
			c3.3-3.9,6.7-7.6,10.3-11.7c-11.3-5-22.2-9.8-33.4-14.8c2-2.3,3.9-4.4,5.8-6.4c0.2-0.2,0.7-0.3,1.1-0.3c0.3,0,0.6,0,0.9,0.1
			c11.8,2.2,23.6,4.5,35.4,6.9c0.4,0.1,0.9,0.1,1.2,0.1c1.1,0,1.9-0.4,2.8-1.5c4.5-5.4,9.2-10.6,13.8-16
			C436.3,133,437.6,132,439.2,132"/>
	</g>
	<g>
		
			<rect x="347.3" y="230.4" transform="matrix(0.9828 0.1849 -0.1849 0.9828 48.9108 -60.7756)" fill="#FFFFFF" width="6" height="3"/>
		<path fill="#FFFFFF" d="M354.6,225.1l-5.9-1.1l1.1-5.8l5.9,1.1L354.6,225.1z M356.8,213.5l-5.9-1.1l1.1-5.8l5.9,1.1L356.8,213.5z
			 M359,201.8l-5.9-1.1l1.1-5.8l5.9,1.1L359,201.8z M361.2,190.2l-5.9-1.1l1.1-5.8l5.9,1.1L361.2,190.2z M363.4,178.6l-5.9-1.1
			l1.1-5.8l5.9,1.1L363.4,178.6z M365.6,166.9l-5.9-1.1l1.1-5.8l5.9,1.1L365.6,166.9z M367.7,155.3l-5.9-1.1l1.1-5.8l5.9,1.1
			L367.7,155.3z"/>
		
			<rect x="364.3" y="140.1" transform="matrix(0.9829 0.1843 -0.1843 0.9829 32.3892 -65.2493)" fill="#FFFFFF" width="6" height="3"/>
	</g>
	<path fill="#FFFFFF" d="M359.1,244.1l-3.3-5c0.1-0.1,2.1-1.4,5.7-3.1l2.6,5.4C360.9,242.9,359.1,244,359.1,244.1z M414,244
		c-0.5-0.3-0.9-0.6-1.4-0.9l3.3-5c0.5,0.3,1,0.7,1.6,1L414,244z M407.7,240.3c-1.7-0.8-3.4-1.6-5.2-2.2l2-5.7c2,0.7,4,1.5,5.9,2.4
		L407.7,240.3z M369.3,239.2l-2.1-5.6c2-0.7,4-1.3,6-1.9l1.5,5.8C372.9,238,371.1,238.5,369.3,239.2z M397.1,236.7
		c-1.8-0.4-3.7-0.6-5.6-0.8l0.5-6c2.1,0.2,4.2,0.5,6.3,0.9L397.1,236.7z M380.3,236.3l-0.9-5.9c2.1-0.3,4.2-0.5,6.3-0.6l0.2,6
		C384.1,235.9,382.2,236,380.3,236.3z"/>
	<path fill="#FFFFFF" d="M356.1,239l-4.7-3.7l3.7-4.7l4.7,3.7L356.1,239z M363.4,229.5l-4.7-3.7l3.7-4.7l4.7,3.7L363.4,229.5z
		 M370.8,220l-4.7-3.7l3.7-4.7l4.7,3.7L370.8,220z M378.1,210.5l-4.7-3.7l3.7-4.7l4.7,3.7L378.1,210.5z M385.5,201l-4.7-3.7l3.5-4.5
		l4.7,3.7L385.5,201z"/>
</g>
<g>
	<g>
		<path fill="#FFFFFF" d="M429-17.5c31.5,0,57.2,25.6,57.2,57.2S460.5,96.8,429,96.8s-57.2-25.6-57.2-57.2S397.5-17.5,429-17.5
			 M429-23.5c-34.9,0-63.2,28.3-63.2,63.2s28.3,63.2,63.2,63.2s63.2-28.3,63.2-63.2S463.9-23.5,429-23.5L429-23.5z"/>
		<path fill="#FFFFFF" d="M370.4,16.7c0-0.1-0.5-7-4.6-15.6c-2.6-5.7-5.1-6.4-9.2-7.7c-2.1-0.7-4.6-1.4-7.3-3
			c-9.2-5.4-6.1-19.9-6-20.5l5.9,1.3l-2.9-0.7l2.9,0.6c0,0.1-2.2,10.9,3.1,14c2.1,1.2,4.1,1.9,6,2.5c4.5,1.4,9.1,2.9,12.8,10.9
			c4.5,9.7,5.1,17.4,5.1,17.7L370.4,16.7z"/>
		<path fill="#FFFFFF" d="M379,3.7c0-0.1-0.5-7-4.6-15.6c-2.6-5.7-5.1-6.4-9.2-7.7c-2.1-0.7-4.6-1.4-7.3-3c-9.2-5.4-6.1-19.9-6-20.5
			l5.9,1.3l-2.9-0.7l2.9,0.6c0,0.1-2.2,10.9,3.1,14c2.1,1.2,4.1,1.9,6,2.5c4.5,1.4,9.1,2.9,12.8,10.9C384.4-4.7,385,3,385,3.3
			L379,3.7z"/>
		<path fill="#FFFFFF" d="M390.9-7.3c0-0.1-0.5-7-4.6-15.6c-2.6-5.7-5.1-6.4-9.2-7.7c-2.1-0.7-4.6-1.4-7.3-3
			c-9.2-5.4-6.1-19.9-6-20.5l5.9,1.3l-2.9-0.7l2.9,0.6c0,0.1-2.2,10.9,3.1,14c2.1,1.2,4.1,1.9,6,2.5c4.5,1.4,9.1,2.9,12.8,10.9
			c4.5,9.7,5.1,17.4,5.1,17.7L390.9-7.3z"/>
		<path fill="#FFFFFF" d="M403.4-16.3c0-0.1-0.5-7-4.6-15.6c-2.6-5.7-5.1-6.4-9.2-7.7c-2.1-0.7-4.6-1.4-7.3-3
			c-9.2-5.4-6.1-19.9-6-20.5l5.9,1.3l-2.9-0.7l2.9,0.6c0,0.1-2.2,10.9,3.1,14c2.1,1.2,4.1,1.9,6,2.5c4.5,1.4,9.1,2.9,12.8,10.9
			c4.5,9.7,5.1,17.4,5.1,17.7L403.4-16.3z"/>
	</g>
	<g>
		<path fill="#FFFFFF" d="M427.9,38.1c-0.2-1.2-0.4-2.3-0.6-3.5c-0.7-3.6-1.7-7-3.7-10.1c-2.9-4.5-7.2-6.8-12.2-8
			c-1.6-0.4-3.3-0.6-4.9-0.9c-0.4-0.1-0.7-0.2-1.1-0.3c0-0.1,0-0.2,0-0.3c0.8-0.1,1.6-0.2,2.4-0.4c4.4-0.7,8.5-1.9,12.1-4.7
			c4-3.1,5.9-7.4,7-12.2c0.4-1.6,0.6-3.1,0.9-4.7c0-0.2,0.2-0.5,0.5-0.7c0.3,1.6,0.6,3.2,0.9,4.7c0.9,4.1,2.3,8,5.3,11.2
			c3.1,3.3,7.1,5,11.4,5.9c1.4,0.3,2.8,0.5,4.2,0.7c0.2,0,0.5,0.1,0.7,0.2c0,0.1,0,0.2,0,0.3c-1.4,0.2-2.8,0.4-4.1,0.7
			c-4.6,0.9-8.8,2.5-12.1,6c-3,3.2-4.5,7.1-5.4,11.3c-0.4,1.6-0.6,3.2-0.9,4.8C428.1,38.1,428,38.1,427.9,38.1z"/>
	</g>
	<g>
		<path fill="#FFFFFF" d="M457.9,22.4c0.9,8.9,5.5,13.9,14.7,14.7c-9.1,0.8-13.8,5.8-14.6,14.8c-0.9-8.9-5.5-14-14.6-14.8
			C452.4,36.3,457,31.3,457.9,22.4z"/>
	</g>
	<g>
		<path fill="#FFFFFF" d="M434.3,63.5c-0.7-6.2-4-9.7-10.2-10.2c6.3-0.6,9.6-4.1,10.2-10.3c1.6,7.2,2.7,8.3,10.2,10.3
			C438.2,53.9,435,57.4,434.3,63.5z"/>
	</g>
	<g>
		<path fill="#FFFFFF" d="M400.3,48.8c-0.6-5.5-3.5-8.6-9.1-9.1c5.6-0.5,8.5-3.7,9-9.1c1.4,6.4,2.4,7.4,9,9.2
			C403.8,40.2,400.9,43.3,400.3,48.8z"/>
	</g>
	<path fill="#FFFFFF" d="M474.9,80.5h-6v-6h6V80.5z M462.9,80.5h-6v-6h6V80.5z M450.9,80.5h-6v-6h6V80.5z M438.9,80.5h-6v-6h6V80.5z
		 M426.9,80.5h-6v-6h6V80.5z M414.9,80.5h-6v-6h6V80.5z M402.9,80.5h-6v-6h6V80.5z M390.9,80.5h-6v-6h6V80.5z"/>
</g>
<g>
	<g>
		<path fill="#FFFFFF" d="M52.6,97.2c0-0.1-0.5-7-4.6-15.6c-2.6-5.7-5.1-6.4-9.2-7.7c-2.1-0.7-4.6-1.4-7.3-3
			c-9.2-5.4-6.1-19.9-6-20.5l5.9,1.3L28.5,51l2.9,0.6c0,0.1-2.2,10.9,3.1,14c2.1,1.2,4.1,1.9,6,2.5c4.5,1.4,9.1,2.9,12.8,10.9
			c4.5,9.7,5.1,17.4,5.1,17.7L52.6,97.2z"/>
		<path fill="#FFFFFF" d="M61.2,84.2c0-0.1-0.5-7-4.6-15.6c-2.6-5.7-5.1-6.4-9.2-7.7c-2.1-0.7-4.6-1.4-7.3-3
			c-9.2-5.4-6.1-19.9-6-20.5l5.9,1.3L37.2,38l2.9,0.6c0,0.1-2.2,10.9,3.1,14c2.1,1.2,4.1,1.9,6,2.5c4.5,1.4,9.1,2.9,12.8,10.9
			c4.5,9.7,5.1,17.4,5.1,17.7L61.2,84.2z"/>
		<path fill="#FFFFFF" d="M73,73.2c0-0.1-0.5-7-4.6-15.6c-2.6-5.7-5.1-6.4-9.2-7.7c-2.1-0.7-4.6-1.4-7.3-3c-9.2-5.4-6.1-19.9-6-20.5
			l5.9,1.3L49,27l2.9,0.6c0,0.1-2.2,10.9,3.1,14c2.1,1.2,4.1,1.9,6,2.5c4.5,1.4,9.1,2.9,12.8,10.9c4.5,9.7,5.1,17.4,5.1,17.7
			L73,73.2z"/>
		<path fill="#FFFFFF" d="M85.5,64.2c0-0.1-0.5-7-4.6-15.6c-2.6-5.7-5.1-6.4-9.2-7.7c-2.1-0.7-4.6-1.4-7.3-3
			c-9.2-5.4-6.1-19.9-6-20.5l5.9,1.3L61.5,18l2.9,0.6c0,0.1-2.2,10.9,3.1,14c2.1,1.2,4.1,1.9,6,2.5c4.5,1.4,9.1,2.9,12.8,10.9
			c4.5,9.7,5.1,17.4,5.1,17.7L85.5,64.2z"/>
		<g>
			<path fill="#FFFFFF" d="M79.6,167.7c-0.8,1.9-2,3.6-3.6,4.9c2.1,1.4,4.3,2.7,6.6,3.8c1.4-1.5,2.5-3.2,3.4-5
				C83.7,170.3,81.6,169.1,79.6,167.7z"/>
			<path fill="#FFFFFF" d="M58.3,154.7c1.3-1.5,3-2.8,4.9-3.5c-1.3-2.1-2.6-4.2-3.6-6.4c-1.9,0.8-3.6,2-5.1,3.3
				C55.7,150.4,56.9,152.6,58.3,154.7z"/>
			<path fill="#FFFFFF" d="M111.2,57C76.3,57,48,85.2,48,120.1c0,7.8,1.4,15.4,4.1,22.3c1.6-1.3,3.4-2.3,5.3-3.1
				c-2.1-6-3.3-12.4-3.3-19.2C54,88.6,79.6,63,111.2,63c31.5,0,57.2,25.6,57.2,57.2s-25.6,57.2-57.2,57.2c-6.9,0-13.6-1.2-19.7-3.5
				c-0.6,1.3-1.2,2.5-2,3.7c-0.4,0.5-0.8,1-1.2,1.5c7.1,2.8,14.8,4.3,22.9,4.3c34.9,0,63.2-28.3,63.2-63.2S146,57,111.2,57z"/>
		</g>
	</g>
	<g>
		<path fill="#FFFFFF" d="M129.8,105.8c1.6,1.6,3.1,3,4.5,4.4c0.9,0.9,0.9,1.1,0,2c-1,1-2,2-3.2,3.2c1,0.9,1.9,1.8,2.8,2.6
			c0.7,0.7,0.7,1,0,1.7c-0.7,0.7-1.4,1.4-2.1,2.1c-0.8,0.8-1.1,0.8-1.9,0c-1.4-1.4-2.7-2.8-4.3-4.4c-1,1-1.9,2-2.8,2.9
			c-0.8,0.8-1.1,0.8-1.9,0c-0.9-0.9-1.8-1.9-2.6-2.7c-11.4,11.4-22.6,22.6-33.8,33.8c0.8,2,1.9,4.1,2.5,6.3
			c3.1,11.5-4.8,23.3-16.6,24.7c-11,1.3-20.7-5.8-22.3-16.8c-1.7-11.2,6-21,16.6-22.6c4.8-0.7,9.3,0.1,13.4,2.6
			c0.7,0.4,1.1,0.4,1.7-0.2c15.7-15.7,31.4-31.4,47.1-47.1c0.7-0.7,1.4-1.3,2.5-1.4c1.7-0.2,3.1,0.6,3.8,2c0.7,1.4,0.4,3-0.7,4.2
			C131.7,104.1,130.8,104.9,129.8,105.8z M80.5,162.7c0-6.9-5.7-12.6-12.6-12.6c-6.9,0-12.6,5.6-12.6,12.5c0,7,5.6,12.7,12.5,12.7
			C74.8,175.4,80.5,169.7,80.5,162.7z"/>
		<path fill="#FFFFFF" d="M130,97c1.5,0,2.7,0.8,3.3,2.1c0.7,1.4,0.4,3-0.7,4.2c-0.8,0.9-1.7,1.7-2.8,2.6c1.6,1.6,3.1,3,4.5,4.4
			c0.9,0.9,0.9,1.1,0,2c-1,1-2,2-3.2,3.2c1,0.9,1.9,1.8,2.8,2.6c0.7,0.7,0.7,1,0,1.7c-0.7,0.7-1.4,1.4-2.1,2.1
			c-0.4,0.4-0.7,0.6-1,0.6c-0.3,0-0.5-0.2-0.9-0.6c-1.4-1.4-2.7-2.8-4.3-4.4c-1,1-1.9,2-2.8,2.9c-0.4,0.4-0.7,0.6-1,0.6
			c-0.3,0-0.6-0.2-1-0.6c-0.9-0.9-1.8-1.9-2.6-2.7c-11.4,11.4-22.6,22.6-33.8,33.8c0.8,2,1.9,4.1,2.5,6.3
			c3.1,11.5-4.8,23.3-16.6,24.7c-0.9,0.1-1.8,0.2-2.6,0.2c-9.9,0-18.2-6.9-19.7-16.9c-1.7-11.2,6-21,16.6-22.6
			c1.1-0.2,2.2-0.2,3.2-0.2c3.6,0,7,0.9,10.2,2.9c0.3,0.2,0.6,0.3,0.8,0.3c0.3,0,0.6-0.2,0.9-0.5c15.7-15.7,31.4-31.4,47.1-47.1
			c0.7-0.7,1.4-1.3,2.5-1.4C129.6,97,129.8,97,130,97 M67.7,175.4c7,0,12.7-5.7,12.7-12.7c0-6.9-5.7-12.6-12.6-12.6c0,0,0,0,0,0
			c-6.9,0-12.6,5.6-12.6,12.5C55.2,169.6,60.8,175.4,67.7,175.4C67.7,175.4,67.7,175.4,67.7,175.4"/>
	</g>
	<path fill="#FFFFFF" d="M112,182.8l-4.2-4.2l4.2-4.2l4.2,4.2L112,182.8z M120.5,174.3l-4.2-4.2l4.2-4.2l4.2,4.2L120.5,174.3z
		 M129,165.8l-4.2-4.2l4.2-4.2l4.2,4.2L129,165.8z M137.5,157.3l-4.2-4.2l4.2-4.2l4.2,4.2L137.5,157.3z M146,148.8l-4.2-4.2l4.2-4.2
		l4.2,4.2L146,148.8z M154.5,140.3l-4.2-4.2l4.2-4.2l4.2,4.2L154.5,140.3z M163,131.8l-4.2-4.2l4.2-4.2l4.2,4.2L163,131.8z
		 M171.4,123.4l-4.2-4.2l3-3l4.2,4.2L171.4,123.4z"/>
</g>
</svg>
