<?xml version="1.0" encoding="utf-8"?>
<!-- Generator: Adobe Illustrator 18.0.0, SVG Export Plug-In . SVG Version: 6.00 Build 0)  -->
<!DOCTYPE svg PUBLIC "-//W3C//DTD SVG 1.1//EN" "http://www.w3.org/Graphics/SVG/1.1/DTD/svg11.dtd">
<svg version="1.1" id="Layer_1" xmlns="http://www.w3.org/2000/svg" xmlns:xlink="http://www.w3.org/1999/xlink" x="0px" y="0px"
	 viewBox="590 350 100 100" enable-background="new 590 350 100 100" xml:space="preserve">
<g>
	<path fill="#7BC9B3" d="M640,1131.2c126.4,0,228.8,102.4,228.8,228.8S766.4,1588.8,640,1588.8S411.2,1486.4,411.2,1360
		S513.6,1131.2,640,1131.2 M640,1107.2c-139.2,0-252.8,112.8-252.8,252.8c0,139.2,112.8,252.8,252.8,252.8S892.8,1500,892.8,1360
		C892.8,1220.8,779.2,1107.2,640,1107.2L640,1107.2z"/>
</g>
<g>
	<g>
		<path fill="#8ED6CE" d="M640,368.5c17.4,0,31.5,14.1,31.5,31.5s-14.1,31.5-31.5,31.5s-31.5-14.1-31.5-31.5S622.6,368.5,640,368.5
			 M640,365.2c-19.2,0-34.8,15.5-34.8,34.8c0,19.2,15.5,34.8,34.8,34.8s34.8-15.5,34.8-34.8C674.8,380.8,659.2,365.2,640,365.2
			L640,365.2z"/>
	</g>
	<g>
		<path fill="#FDDB01" d="M635.7,412.3L635.7,412.3c-3.3-1.1-5.9-3.5-7.5-6.6l3.1-1.5c1.1,2.3,3.1,4.1,5.5,4.8L635.7,412.3z
			 M645.7,411.7l-1.5-3.1c2.3-1.1,4.1-3.1,4.8-5.5l3.3,1.1l0,0C651.1,407.5,648.8,410.2,645.7,411.7z M627.7,395.8L627.7,395.8
			c1.1-3.3,3.5-5.9,6.6-7.5l1.5,3.1c-2.3,1.1-4.1,3.1-4.8,5.5L627.7,395.8z M648.6,395.7c-1.1-2.3-3.1-4-5.5-4.8l1.1-3.2l0,0
			c3.3,1.1,5.9,3.4,7.5,6.6L648.6,395.7z"/>
		<path fill="#136AB3" d="M632.1,410.4L632.1,410.4c-2.8-2.1-4.5-5.2-5.1-8.6l3.4-0.4c0.3,2.5,1.7,4.8,3.7,6.4L632.1,410.4z
			 M641.8,412.9l-0.4-3.4c2.5-0.3,4.8-1.7,6.4-3.7l2.8,2.1l0,0C648.3,410.7,645.2,412.4,641.8,412.9z M629.6,392.1L629.6,392.1
			c2.1-2.8,5.2-4.5,8.6-5.1l0.4,3.4c-2.5,0.3-4.7,1.7-6.4,3.6L629.6,392.1z M649.5,398.7c-0.3-2.5-1.7-4.7-3.6-6.4l2.1-2.8l0,0
			c2.8,2.1,4.5,5.2,5,8.6L649.5,398.7z"/>
	</g>
</g>
<g>
	<g>
		<path fill="#8ED6CE" d="M122.8,601.9c17.4,0,31.5,14.1,31.5,31.5s-14.1,31.5-31.5,31.5s-31.5-14.1-31.5-31.5
			C91.3,616,105.4,601.9,122.8,601.9 M122.8,598.6c-19.2,0-34.8,15.5-34.8,34.8s15.6,34.8,34.8,34.8s34.8-15.5,34.8-34.8
			C157.6,614.3,142,598.6,122.8,598.6L122.8,598.6z"/>
	</g>
	<rect x="117.2" y="627.8" fill="#BE72AE" width="11.2" height="11.2"/>
</g>
<g>
	<polygon fill="#D14747" points="640,1276.8 659.2,1327.2 712,1318.4 677.6,1360 712,1401.6 659.2,1392.8 640,1443.2 620.8,1392.8 
		568,1401.6 602.4,1360 568,1318.4 620.8,1327.2 	"/>
	<circle fill="none" stroke="#FAAF40" stroke-width="1.5" stroke-miterlimit="10" cx="640" cy="1360" r="64.8"/>
	<polygon fill="#D14747" points="640,1276.8 659.2,1327.2 675.2,1339.2 677.6,1360 712,1401.6 659.2,1392.8 640,1392 620.8,1392.8 
		568,1401.6 602.4,1360 616,1340 620.8,1327.2 	"/>
</g>
</svg>
