<?xml version="1.0" encoding="utf-8"?>
<!-- Generator: Adobe Illustrator 18.0.0, SVG Export Plug-In . SVG Version: 6.00 Build 0)  -->
<!DOCTYPE svg PUBLIC "-//W3C//DTD SVG 1.1//EN" "http://www.w3.org/Graphics/SVG/1.1/DTD/svg11.dtd">
<svg version="1.1" id="Layer_1" xmlns="http://www.w3.org/2000/svg" xmlns:xlink="http://www.w3.org/1999/xlink" x="0px" y="0px"
	 viewBox="0 0 500 300" enable-background="new 0 0 500 300" xml:space="preserve">
<g>
	<path fill="#7BC9B3" d="M-494.6,352.2c47.4,0,85.8,38.4,85.8,85.8s-38.4,85.8-85.8,85.8s-85.8-38.4-85.8-85.8
		S-541.7,352.2-494.6,352.2 M-494.6,343.2c-52.2,0-94.8,42.3-94.8,94.8c0,52.2,42.3,94.8,94.8,94.8s94.8-42.3,94.8-94.8
		C-399.8,385.5-442.1,343.2-494.6,343.2L-494.6,343.2z"/>
</g>
<g>
	<path fill="#FFFFFF" d="M250,64.2c47.4,0,85.8,38.4,85.8,85.8s-38.4,85.8-85.8,85.8s-85.8-38.4-85.8-85.8S202.6,64.2,250,64.2
		 M250,55.2c-52.2,0-94.8,42.3-94.8,94.8c0,52.2,42.3,94.8,94.8,94.8s94.8-42.6,94.8-94.8S302.2,55.2,250,55.2L250,55.2z"/>
</g>
<g>
	<path fill="#7BC9B3" d="M250,424.2c47.4,0,85.8,38.4,85.8,85.8s-38.4,85.8-85.8,85.8s-85.8-38.4-85.8-85.8S202.6,424.2,250,424.2
		 M250,415.2c-52.2,0-94.8,42.3-94.8,94.8c0,52.2,42.3,94.8,94.8,94.8s94.8-42.3,94.8-94.8C344.8,457.8,302.2,415.2,250,415.2
		L250,415.2z"/>
</g>
<g>
	<path fill="#7BC9B3" d="M999.4,352.2c47.4,0,85.8,38.4,85.8,85.8s-38.4,85.8-85.8,85.8s-85.8-38.4-85.8-85.8
		S952.3,352.2,999.4,352.2 M999.4,343.2c-52.2,0-94.8,42.3-94.8,94.8c0,52.2,42.3,94.8,94.8,94.8c52.5,0,94.8-42.3,94.8-94.8
		S1051.9,343.2,999.4,343.2L999.4,343.2z"/>
</g>
<path fill="none" stroke="#7BC9B3" stroke-width="3" stroke-miterlimit="10" d="M250,150"/>
<path fill="none" stroke="#7BC9B3" stroke-width="3" stroke-miterlimit="10" d="M250,150"/>
<polygon fill="#72BE44" points="55.2,385.6 75.3,353.8 95.4,385.6 "/>
<g>
	<path fill="#FDDB01" d="M988,471.3L988,471.3c-9-3-16.2-9.6-20.4-18l8.4-4.2c3,6.3,8.4,11.1,15,13.2L988,471.3z M1015,469.8
		l-4.2-8.4c6.3-3,11.1-8.4,13.2-15l9,3l0,0C1030,458.4,1023.4,465.6,1015,469.8z M965.8,426.3L965.8,426.3c3-9,9.6-16.2,18-20.4
		l4.2,8.4c-6.3,3-11.1,8.4-13.2,15L965.8,426.3z M1023.1,426.3c-3-6.3-8.4-10.8-15-13.2l3-8.7l0,0c9,3,16.2,9.3,20.4,18
		L1023.1,426.3z"/>
	<path fill="#136AB3" d="M977.8,466.2L977.8,466.2c-7.5-5.7-12.3-14.1-13.8-23.4l9.3-1.2c0.9,6.9,4.5,13.2,10.2,17.4L977.8,466.2z
		 M1004.2,473.1l-1.2-9.3c6.9-0.9,13.2-4.5,17.4-10.2l7.5,5.7l0,0C1021.9,466.8,1013.5,471.9,1004.2,473.1z M971.2,416.4
		L971.2,416.4c5.7-7.5,14.1-12.3,23.4-13.8l1.2,9.3c-6.9,0.9-12.9,4.5-17.4,9.9L971.2,416.4z M1025.5,434.4
		c-0.9-6.9-4.5-12.9-9.9-17.4l5.7-7.5l0,0c7.5,5.7,12.3,14.1,13.5,23.4L1025.5,434.4z"/>
</g>
<rect x="-509.6" y="422.7" fill="#BE72AE" width="30.6" height="30.6"/>
<g>
	<polygon fill="#D14747" points="250,478.8 257.2,497.7 277,494.4 264.1,510 277,525.6 257.2,522.3 250,541.2 242.8,522.3 
		223,525.6 235.9,510 223,494.4 242.8,497.7 	"/>
	<circle fill="none" stroke="#FAAF40" stroke-width="1.5" stroke-miterlimit="10" cx="250" cy="510" r="24.3"/>
	<polygon fill="#D14747" points="250,478.8 257.2,497.7 263.2,502.2 264.1,510 277,525.6 257.2,522.3 250,522 242.8,522.3 
		223,525.6 235.9,510 241,502.5 242.8,497.7 	"/>
</g>
<polygon fill="#FFFFFF" points="229.7,186.6 207.8,164.7 214.9,157.6 229.7,172.4 285.1,117 292.2,124 "/>
</svg>
