<?xml version="1.0" encoding="utf-8"?>
<!-- Generator: Adobe Illustrator 18.0.0, SVG Export Plug-In . SVG Version: 6.00 Build 0)  -->
<!DOCTYPE svg PUBLIC "-//W3C//DTD SVG 1.1//EN" "http://www.w3.org/Graphics/SVG/1.1/DTD/svg11.dtd">
<svg version="1.1" id="Layer_1" xmlns="http://www.w3.org/2000/svg" xmlns:xlink="http://www.w3.org/1999/xlink" x="0px" y="0px"
	 viewBox="590 350 100 100" enable-background="new 590 350 100 100" xml:space="preserve">
<g>
	<path fill="#7BC9B3" d="M-1345.6,939.2c126.4,0,228.8,102.4,228.8,228.8s-102.4,228.8-228.8,228.8s-228.8-102.4-228.8-228.8
		S-1471.2,939.2-1345.6,939.2 M-1345.6,915.2c-139.2,0-252.8,112.8-252.8,252.8c0,139.2,112.8,252.8,252.8,252.8
		s252.8-112.8,252.8-252.8C-1092.8,1028-1205.6,915.2-1345.6,915.2L-1345.6,915.2z"/>
</g>
<g>
	<path fill="#7BC9B3" d="M-24,876.8c126.4,0,228.8,102.4,228.8,228.8S102.4,1334.4-24,1334.4s-228.8-102.4-228.8-228.8
		S-149.6,876.8-24,876.8 M-24,852.8c-139.2,0-252.8,112.8-252.8,252.8c0,139.2,112.8,252.8,252.8,252.8s252.8-112.8,252.8-252.8
		C228.8,966.4,116,852.8-24,852.8L-24,852.8z"/>
</g>
<g>
	<path fill="#8ED6CE" d="M640,368.5c17.4,0,31.5,14.1,31.5,31.5s-14.1,31.5-31.5,31.5s-31.5-14.1-31.5-31.5S622.6,368.5,640,368.5
		 M640,365.2c-19.2,0-34.8,15.5-34.8,34.8c0,19.2,15.5,34.8,34.8,34.8s34.8-15.6,34.8-34.8S659.2,365.2,640,365.2L640,365.2z"/>
</g>
<g>
	<path fill="#7BC9B3" d="M2638.4,939.2c126.4,0,228.8,102.4,228.8,228.8s-102.4,228.8-228.8,228.8s-228.8-102.4-228.8-228.8
		S2512.8,939.2,2638.4,939.2 M2638.4,915.2c-139.2,0-252.8,112.8-252.8,252.8c0,139.2,112.8,252.8,252.8,252.8
		s252.8-112.8,252.8-252.8S2778.4,915.2,2638.4,915.2L2638.4,915.2z"/>
</g>
<path fill="none" stroke="#7BC9B3" stroke-width="3" stroke-miterlimit="10" d="M-24,1105.6"/>
<path fill="none" stroke="#7BC9B3" stroke-width="3" stroke-miterlimit="10" d="M-24,1105.6"/>
<polygon fill="#72BE44" points="-76.8,1140 -24,1055.2 29.6,1140 "/>
<g>
	<path fill="#FDDB01" d="M2608,1256.8L2608,1256.8c-24-8-43.2-25.6-54.4-48l22.4-11.2c8,16.8,22.4,29.6,40,35.2L2608,1256.8z
		 M2680,1252.8l-11.2-22.4c16.8-8,29.6-22.4,35.2-40l24,8l0,0C2720,1222.4,2702.4,1241.6,2680,1252.8z M2548.8,1136.8L2548.8,1136.8
		c8-24,25.6-43.2,48-54.4l11.2,22.4c-16.8,8-29.6,22.4-35.2,40L2548.8,1136.8z M2701.6,1136.8c-8-16.8-22.4-28.8-40-35.2l8-23.2l0,0
		c24,8,43.2,24.8,54.4,48L2701.6,1136.8z"/>
	<path fill="#136AB3" d="M2580.8,1243.2L2580.8,1243.2c-20-15.2-32.8-37.6-36.8-62.4l24.8-3.2c2.4,18.4,12,35.2,27.2,46.4
		L2580.8,1243.2z M2651.2,1261.6l-3.2-24.8c18.4-2.4,35.2-12,46.4-27.2l20,15.2l0,0C2698.4,1244.8,2676,1258.4,2651.2,1261.6z
		 M2563.2,1110.4L2563.2,1110.4c15.2-20,37.6-32.8,62.4-36.8l3.2,24.8c-18.4,2.4-34.4,12-46.4,26.4L2563.2,1110.4z M2708,1158.4
		c-2.4-18.4-12-34.4-26.4-46.4l15.2-20l0,0c20,15.2,32.8,37.6,36,62.4L2708,1158.4z"/>
</g>
<rect x="-1385.6" y="1127.2" fill="#BE72AE" width="81.6" height="81.6"/>
<g>
	<polygon fill="#D14747" points="640,388.5 642.6,395.5 649.9,394.3 645.2,400 649.9,405.7 642.6,404.5 640,411.5 637.4,404.5 
		630.1,405.7 634.8,400 630.1,394.3 637.4,395.5 	"/>
	<circle fill="none" stroke="#FAAF40" stroke-width="1.5" stroke-miterlimit="10" cx="640" cy="400" r="8.9"/>
	<polygon fill="#D14747" points="640,388.5 642.6,395.5 644.8,397.1 645.2,400 649.9,405.7 642.6,404.5 640,404.4 637.4,404.5 
		630.1,405.7 634.8,400 636.7,397.2 637.4,395.5 	"/>
</g>
</svg>
