<?xml version="1.0" encoding="utf-8"?>
<!-- Generator: Adobe Illustrator 18.0.0, SVG Export Plug-In . SVG Version: 6.00 Build 0)  -->
<!DOCTYPE svg PUBLIC "-//W3C//DTD SVG 1.1//EN" "http://www.w3.org/Graphics/SVG/1.1/DTD/svg11.dtd">
<svg version="1.1" id="Layer_1" xmlns="http://www.w3.org/2000/svg" xmlns:xlink="http://www.w3.org/1999/xlink" x="0px" y="0px"
	 viewBox="0 0 100 100" enable-background="new 0 0 100 100" xml:space="preserve">
<g>
	<path fill="#7BC9B3" d="M-86.3,2.3c-25.2,0-45.6,20.4-45.6,45.6c0,25.2,20.4,45.6,45.6,45.6S-40.8,73-40.8,47.8
		C-40.8,22.7-61.2,2.3-86.3,2.3L-86.3,2.3z"/>
</g>
<g>
	<path fill="#7BC9B3" d="M-37.6,96.1c15.8,0,28.6,12.8,28.6,28.6s-12.8,28.6-28.6,28.6s-28.6-12.8-28.6-28.6S-53.3,96.1-37.6,96.1
		 M-37.6,93.1c-17.4,0-31.6,14.1-31.6,31.6c0,17.4,14.1,31.6,31.6,31.6S-6,142.1-6,124.7C-6,107.2-20.1,93.1-37.6,93.1L-37.6,93.1z"
		/>
</g>
<g>
	<path fill="#7BC9B3" d="M169.7,21.4c15.8,0,28.6,12.8,28.6,28.6s-12.8,28.6-28.6,28.6S141.1,65.8,141.1,50S153.9,21.4,169.7,21.4
		 M169.7,18.4c-17.4,0-31.6,14.1-31.6,31.6c0,17.4,14.1,31.6,31.6,31.6s31.6-14.1,31.6-31.6C201.2,32.6,187.1,18.4,169.7,18.4
		L169.7,18.4z"/>
</g>
<g>
	<path fill="#7BC9B3" d="M50,141.4c15.8,0,28.6,12.8,28.6,28.6S65.8,198.6,50,198.6S21.4,185.8,21.4,170S34.2,141.4,50,141.4
		 M50,138.4c-17.4,0-31.6,14.1-31.6,31.6c0,17.4,14.1,31.6,31.6,31.6s31.6-14.1,31.6-31.6C81.6,152.6,67.4,138.4,50,138.4L50,138.4z
		"/>
</g>
<g>
	<path fill="#7BC9B3" d="M131.6,108.5c15.8,0,28.6,12.8,28.6,28.6s-12.8,28.6-28.6,28.6S103,152.9,103,137.1
		S115.8,108.5,131.6,108.5 M131.6,105.5c-17.4,0-31.6,14.1-31.6,31.6c0,17.4,14.1,31.6,31.6,31.6s31.6-14.1,31.6-31.6
		C163.2,119.7,149,105.5,131.6,105.5L131.6,105.5z"/>
</g>
<path fill="none" stroke="#7BC9B3" stroke-width="3" stroke-miterlimit="10" d="M169.7,50"/>
<path fill="none" stroke="#7BC9B3" stroke-width="3" stroke-miterlimit="10" d="M169.7,50"/>
<polygon fill="#72BE44" points="163,54.3 169.7,43.7 176.3,54.3 "/>
<g>
	<path fill="#FDDB01" d="M127.7,148.3L127.7,148.3c-3-1-5.4-3.2-6.8-6l2.8-1.4c1,2.1,2.8,3.7,5,4.4L127.7,148.3z M136.8,147.7
		l-1.4-2.8c2.1-1,3.7-2.8,4.4-5l3,1l0,0C141.7,143.9,139.6,146.4,136.8,147.7z M120.4,133.3L120.4,133.3c1-3,3.2-5.4,6-6.8l1.4,2.8
		c-2.1,1-3.7,2.8-4.4,5L120.4,133.3z M139.4,133.2c-1-2.1-2.8-3.6-5-4.4l1-2.9l0,0c3,1,5.4,3.1,6.8,6L139.4,133.2z"/>
	<path fill="#136AB3" d="M124.4,146.5L124.4,146.5c-2.5-1.9-4.1-4.7-4.6-7.8l3.1-0.4c0.3,2.3,1.5,4.4,3.4,5.8L124.4,146.5z
		 M133.2,148.8l-0.4-3.1c2.3-0.3,4.4-1.5,5.8-3.4l2.5,1.9l0,0C139.1,146.8,136.3,148.4,133.2,148.8z M122.2,129.9L122.2,129.9
		c1.9-2.5,4.7-4.1,7.8-4.6l0.4,3.1c-2.3,0.3-4.3,1.5-5.8,3.3L122.2,129.9z M140.2,135.9c-0.3-2.3-1.5-4.3-3.3-5.8l1.9-2.5l0,0
		c2.5,1.9,4.1,4.7,4.5,7.8L140.2,135.9z"/>
</g>
<rect x="-42.7" y="119.6" fill="#BE72AE" width="10.2" height="10.2"/>
<g>
	<path fill="#FFFFFF" d="M-86.3,19.8c15.8,0,28.6,12.8,28.6,28.6S-70.6,77-86.3,77s-28.6-12.8-28.6-28.6S-102.1,19.8-86.3,19.8
		 M-86.3,16.8c-17.4,0-31.6,14.1-31.6,31.6c0,17.4,14.1,31.6,31.6,31.6s31.6-14.1,31.6-31.6C-54.8,31-68.9,16.8-86.3,16.8
		L-86.3,16.8z"/>
</g>
<g>
	<polygon fill="#D14747" points="50,159.6 52.4,165.9 59,164.8 54.7,170 59,175.2 52.4,174.1 50,180.4 47.6,174.1 41,175.2 
		45.3,170 41,164.8 47.6,165.9 	"/>
	<circle fill="none" stroke="#FAAF40" stroke-width="1.5" stroke-miterlimit="10" cx="50" cy="170" r="8.1"/>
	<polygon fill="#D14747" points="50,159.6 52.4,165.9 54.4,167.4 54.7,170 59,175.2 52.4,174.1 50,174 47.6,174.1 41,175.2 
		45.3,170 47,167.5 47.6,165.9 	"/>
</g>
<g>
	<path fill="none" d="M-90.5,46.8c-0.3,0.5-0.5,1-0.5,1.6s0.2,1.1,0.5,1.6c0.3-0.5,0.5-1,0.5-1.6S-90.2,47.3-90.5,46.8z"/>
	<path fill="none" d="M-83.1,45.9c-0.2-0.1-0.5,0.1-0.7,0.1h-4.3c-0.3,0-0.5-0.2-0.8-0.1c0.5,0.8,0.9,1.6,0.9,2.6s-0.3,1.8-0.9,2.6
		c0.3,0.1,0.5-0.1,0.8-0.1h4.3c0.3,0,0.5,0.1,0.7,0c-0.5-0.8-0.9-1.6-0.9-2.6C-84,47.4-83.7,46.7-83.1,45.9z"/>
	<path fill="none" d="M-79.9,51c0.2,0.1,0.5,0,0.7,0h8.3c1.6,0,2.9-0.9,2.9-2.5c0-1.6-1.3-2.5-2.9-2.5h-8.3c-0.3,0-0.5-0.2-0.7-0.1
		c0.5,0.8,0.9,1.6,0.9,2.6C-79,49.5-79.3,50.2-79.9,51z"/>
	<path fill="none" d="M-81.5,46.8c-0.3,0.5-0.5,1-0.5,1.6s0.2,1.2,0.5,1.6c0.3-0.5,0.5-1,0.5-1.6S-81.2,47.3-81.5,46.8z"/>
	<path fill="none" d="M-92.1,45.9c-0.3-0.1-0.5,0.1-0.8,0.1h-8.3c-1.6,0-2.9,0.9-2.9,2.5c0,1.6,1.3,2.5,2.9,2.5h8.3
		c0.3,0,0.5,0.1,0.8,0c-0.5-0.8-0.9-1.5-0.9-2.6S-92.7,46.7-92.1,45.9z"/>
	<path fill="#FFFFFF" d="M-81.5,46.8c0.3,0.5,0.5,1,0.5,1.6s-0.2,1.2-0.5,1.6c0.4,0.6,1,1,1.6,1.1c0.5-0.8,0.9-1.7,0.9-2.8
		c0-1-0.3-2-0.9-2.8C-80.5,45.8-81.1,46.2-81.5,46.8z"/>
	<path fill="#FFFFFF" d="M-90.5,46.8c-0.4-0.6-0.9-1-1.6-1.2c-0.5,0.8-0.9,1.7-0.9,2.8s0.3,2,0.9,2.8c0.7-0.2,1.2-0.6,1.6-1.2
		c-0.3-0.5-0.5-1-0.5-1.6S-90.8,47.3-90.5,46.8z"/>
	<path fill="#FFFFFF" d="M-83.1,51c-0.2,0.1-0.5,0-0.7,0h-4.3c-0.3,0-0.5,0.1-0.8,0c-0.4,0.6-1,1-1.6,1.4c0.7,0.4,1.5,0.6,2.4,0.6
		h4.3c0.9,0,1.7-0.2,2.4-0.6C-82.1,52.1-82.7,51.6-83.1,51z"/>
	<path fill="#FFFFFF" d="M-88.9,45.9c0.3-0.1,0.5,0.1,0.8,0.1h4.3c0.3,0,0.5-0.2,0.7-0.1c0.4-0.6,1-1,1.6-1.3
		c-0.7-0.4-1.5-0.5-2.4-0.5h-4.3c-0.9,0-1.7,0.1-2.4,0.5C-89.9,44.9-89.3,45.3-88.9,45.9z"/>
	<path fill="#CC6666" d="M-92.1,51c-0.3,0.1-0.5,0-0.8,0h-8.3c-1.6,0-2.9-0.9-2.9-2.5c0-1.6,1.3-2.5,2.9-2.5h8.3
		c0.3,0,0.5-0.2,0.8-0.1c0.4-0.6,1-1,1.6-1.3c-0.7-0.4-1.5-0.5-2.4-0.5h-8.3c-2.7,0-4.9,1.8-4.9,4.5c0,2.7,2.2,4.5,4.9,4.5h8.3
		c0.9,0,1.7-0.2,2.4-0.6C-91.2,52-91.7,51.6-92.1,51z"/>
	<path fill="#CC6666" d="M-88.9,45.7c-0.7,0.2-1.2,0.6-1.6,1.2c0.3,0.5,0.5,1,0.5,1.6s-0.2,1.1-0.5,1.6c0.4,0.6,0.9,1,1.6,1.2
		c0.5-0.8,0.9-1.7,0.9-2.8S-88.4,46.4-88.9,45.7z"/>
	<path fill="#D39831" d="M-81.5,46.8c-0.4-0.6-1-1-1.6-1.1c-0.5,0.8-0.9,1.7-0.9,2.8c0,1,0.3,2,0.9,2.8c0.7-0.2,1.2-0.6,1.6-1.1
		c-0.3-0.5-0.5-1-0.5-1.6S-81.8,47.3-81.5,46.8z"/>
	<path fill="#D39831" d="M-70.9,44h-8.3c-0.9,0-1.7,0-2.4,0.4c0.6,0.4,1.2,1,1.6,1.6c0.2-0.1,0.5,0,0.7,0h8.3c1.6,0,2.9,0.9,2.9,2.5
		c0,1.6-1.3,2.5-2.9,2.5h-8.3c-0.3,0-0.5,0.1-0.7,0c-0.4,0.6-1,1-1.6,1.4c0.7,0.4,1.5,0.6,2.4,0.6h8.3c2.7,0,4.9-1.8,4.9-4.5
		C-66,45.8-68.2,44-70.9,44z"/>
</g>
<g>
	<path fill="#FFFFFF" d="M49.7,20.8c15.8,0,28.6,12.8,28.6,28.6S65.4,78,49.7,78S21.1,65.2,21.1,49.4S33.9,20.8,49.7,20.8
		 M49.7,17.8c-17.4,0-31.6,14.1-31.6,31.6C18.1,66.9,32.2,81,49.7,81s31.6-14.1,31.6-31.6C81.2,32,67.1,17.8,49.7,17.8L49.7,17.8z"
		/>
</g>
<g>
	<path fill="none" d="M45.5,47.8c-0.3,0.5-0.5,1-0.5,1.6s0.2,1.1,0.5,1.6c0.3-0.5,0.5-1,0.5-1.6S45.8,48.3,45.5,47.8z"/>
	<path fill="none" d="M52.9,46.9c-0.2-0.1-0.5,0.1-0.7,0.1h-4.3c-0.3,0-0.5-0.2-0.8-0.1c0.5,0.8,0.9,1.6,0.9,2.6s-0.3,1.8-0.9,2.6
		c0.3,0.1,0.5-0.1,0.8-0.1h4.3c0.3,0,0.5,0.1,0.7,0c-0.5-0.8-0.9-1.6-0.9-2.6C52,48.4,52.3,47.7,52.9,46.9z"/>
	<path fill="none" d="M56.1,52c0.2,0.1,0.5,0,0.7,0h8.3c1.6,0,2.9-0.9,2.9-2.5c0-1.6-1.3-2.5-2.9-2.5h-8.3c-0.3,0-0.5-0.2-0.7-0.1
		c0.5,0.8,0.9,1.6,0.9,2.6C57,50.5,56.7,51.2,56.1,52z"/>
	<path fill="none" d="M54.5,47.8c-0.3,0.5-0.5,1-0.5,1.6s0.2,1.2,0.5,1.6c0.3-0.5,0.5-1,0.5-1.6S54.8,48.3,54.5,47.8z"/>
	<path fill="none" d="M43.9,46.9c-0.3-0.1-0.5,0.1-0.8,0.1h-8.3c-1.6,0-2.9,0.9-2.9,2.5c0,1.6,1.3,2.5,2.9,2.5h8.3
		c0.3,0,0.5,0.1,0.8,0c-0.5-0.8-0.9-1.5-0.9-2.6S43.3,47.7,43.9,46.9z"/>
	<path fill="#FFFFFF" d="M54.5,47.8c0.3,0.5,0.5,1,0.5,1.6s-0.2,1.2-0.5,1.6c0.4,0.6,1,1,1.6,1.1c0.5-0.8,0.9-1.7,0.9-2.8
		c0-1-0.3-2-0.9-2.8C55.5,46.8,54.9,47.2,54.5,47.8z"/>
	<path fill="#FFFFFF" d="M45.5,47.8c-0.4-0.6-0.9-1-1.6-1.2c-0.5,0.8-0.9,1.7-0.9,2.8s0.3,2,0.9,2.8c0.7-0.2,1.2-0.6,1.6-1.2
		c-0.3-0.5-0.5-1-0.5-1.6S45.2,48.3,45.5,47.8z"/>
	<path fill="#FFFFFF" d="M52.9,52c-0.2,0.1-0.5,0-0.7,0h-4.3c-0.3,0-0.5,0.1-0.8,0c-0.4,0.6-1,1-1.6,1.4c0.7,0.4,1.5,0.6,2.4,0.6
		h4.3c0.9,0,1.7-0.2,2.4-0.6C53.9,53.1,53.3,52.6,52.9,52z"/>
	<path fill="#FFFFFF" d="M47.1,46.9c0.3-0.1,0.5,0.1,0.8,0.1h4.3c0.3,0,0.5-0.2,0.7-0.1c0.4-0.6,1-1,1.6-1.3
		C53.8,45.1,53,45,52.1,45h-4.3c-0.9,0-1.7,0.1-2.4,0.5C46.1,45.9,46.7,46.3,47.1,46.9z"/>
	<path fill="#CC6666" d="M43.9,52c-0.3,0.1-0.5,0-0.8,0h-8.3c-1.6,0-2.9-0.9-2.9-2.5c0-1.6,1.3-2.5,2.9-2.5h8.3
		c0.3,0,0.5-0.2,0.8-0.1c0.4-0.6,1-1,1.6-1.3C44.8,45.1,44,45,43.1,45h-8.3c-2.7,0-4.9,1.8-4.9,4.5c0,2.7,2.2,4.5,4.9,4.5h8.3
		c0.9,0,1.7-0.2,2.4-0.6C44.8,53,44.3,52.6,43.9,52z"/>
	<path fill="#CC6666" d="M47.1,46.7c-0.7,0.2-1.2,0.6-1.6,1.2c0.3,0.5,0.5,1,0.5,1.6s-0.2,1.1-0.5,1.6c0.4,0.6,0.9,1,1.6,1.2
		c0.5-0.8,0.9-1.7,0.9-2.8S47.6,47.4,47.1,46.7z"/>
	<path fill="#D39831" d="M54.5,47.8c-0.4-0.6-1-1-1.6-1.1c-0.5,0.8-0.9,1.7-0.9,2.8c0,1,0.3,2,0.9,2.8c0.7-0.2,1.2-0.6,1.6-1.1
		c-0.3-0.5-0.5-1-0.5-1.6S54.2,48.3,54.5,47.8z"/>
	<path fill="#D39831" d="M65.1,45h-8.3c-0.9,0-1.7,0-2.4,0.4c0.6,0.4,1.2,1,1.6,1.6c0.2-0.1,0.5,0,0.7,0h8.3c1.6,0,2.9,0.9,2.9,2.5
		c0,1.6-1.3,2.5-2.9,2.5h-8.3c-0.3,0-0.5,0.1-0.7,0c-0.4,0.6-1,1-1.6,1.4c0.7,0.4,1.5,0.6,2.4,0.6h8.3c2.7,0,4.9-1.8,4.9-4.5
		C70,46.8,67.8,45,65.1,45z"/>
</g>
</svg>
