<?xml version="1.0" encoding="utf-8"?>
<!-- Generator: Adobe Illustrator 18.0.0, SVG Export Plug-In . SVG Version: 6.00 Build 0)  -->
<!DOCTYPE svg PUBLIC "-//W3C//DTD SVG 1.1//EN" "http://www.w3.org/Graphics/SVG/1.1/DTD/svg11.dtd">
<svg version="1.1" id="Layer_1" xmlns="http://www.w3.org/2000/svg" xmlns:xlink="http://www.w3.org/1999/xlink" x="0px" y="0px"
	 viewBox="0 0 100 100" enable-background="new 0 0 100 100" xml:space="preserve">
<g>
	<path fill="#7BC9B3" d="M50,19.8c15.8,0,28.6,12.8,28.6,28.6S65.8,77,50,77S21.4,64.2,21.4,48.4S34.2,19.8,50,19.8 M50,16.8
		c-17.4,0-31.6,14.1-31.6,31.6C18.4,65.9,32.6,80,50,80s31.6-14.1,31.6-31.6C81.6,31,67.4,16.8,50,16.8L50,16.8z"/>
</g>
<g>
	<path fill="#7BC9B3" d="M169.7,21.4c15.8,0,28.6,12.8,28.6,28.6s-12.8,28.6-28.6,28.6S141.1,65.8,141.1,50S153.9,21.4,169.7,21.4
		 M169.7,18.4c-17.4,0-31.6,14.1-31.6,31.6c0,17.4,14.1,31.6,31.6,31.6s31.6-14.1,31.6-31.6C201.2,32.6,187.1,18.4,169.7,18.4
		L169.7,18.4z"/>
</g>
<g>
	<path fill="#7BC9B3" d="M50,141.4c15.8,0,28.6,12.8,28.6,28.6S65.8,198.6,50,198.6S21.4,185.8,21.4,170S34.2,141.4,50,141.4
		 M50,138.4c-17.4,0-31.6,14.1-31.6,31.6c0,17.4,14.1,31.6,31.6,31.6s31.6-14.1,31.6-31.6C81.6,152.6,67.4,138.4,50,138.4L50,138.4z
		"/>
</g>
<g>
	<path fill="#7BC9B3" d="M131.6,108.5c15.8,0,28.6,12.8,28.6,28.6s-12.8,28.6-28.6,28.6S103,152.9,103,137.1
		S115.8,108.5,131.6,108.5 M131.6,105.5c-17.4,0-31.6,14.1-31.6,31.6c0,17.4,14.1,31.6,31.6,31.6s31.6-14.1,31.6-31.6
		C163.2,119.7,149,105.5,131.6,105.5L131.6,105.5z"/>
</g>
<path fill="none" stroke="#7BC9B3" stroke-width="3" stroke-miterlimit="10" d="M169.7,50"/>
<path fill="none" stroke="#7BC9B3" stroke-width="3" stroke-miterlimit="10" d="M169.7,50"/>
<polygon fill="#72BE44" points="163,54.3 169.7,43.7 176.3,54.3 "/>
<g>
	<path fill="#FDDB01" d="M127.7,148.3L127.7,148.3c-3-1-5.4-3.2-6.8-6l2.8-1.4c1,2.1,2.8,3.7,5,4.4L127.7,148.3z M136.8,147.7
		l-1.4-2.8c2.1-1,3.7-2.8,4.4-5l3,1l0,0C141.7,143.9,139.6,146.4,136.8,147.7z M120.4,133.3L120.4,133.3c1-3,3.2-5.4,6-6.8l1.4,2.8
		c-2.1,1-3.7,2.8-4.4,5L120.4,133.3z M139.4,133.2c-1-2.1-2.8-3.6-5-4.4l1-2.9l0,0c3,1,5.4,3.1,6.8,6L139.4,133.2z"/>
	<path fill="#136AB3" d="M124.4,146.5L124.4,146.5c-2.5-1.9-4.1-4.7-4.6-7.8l3.1-0.4c0.3,2.3,1.5,4.4,3.4,5.8L124.4,146.5z
		 M133.2,148.8l-0.4-3.1c2.3-0.3,4.4-1.5,5.8-3.4l2.5,1.9l0,0C139.1,146.8,136.3,148.4,133.2,148.8z M122.2,129.9L122.2,129.9
		c1.9-2.5,4.7-4.1,7.8-4.6l0.4,3.1c-2.3,0.3-4.3,1.5-5.8,3.3L122.2,129.9z M140.2,135.9c-0.3-2.3-1.5-4.3-3.3-5.8l1.9-2.5l0,0
		c2.5,1.9,4.1,4.7,4.5,7.8L140.2,135.9z"/>
</g>
<rect x="44.9" y="43.3" fill="#BE72AE" width="10.2" height="10.2"/>
<g>
	<polygon fill="#D14747" points="50,159.6 52.4,165.9 59,164.8 54.7,170 59,175.2 52.4,174.1 50,180.4 47.6,174.1 41,175.2 
		45.3,170 41,164.8 47.6,165.9 	"/>
	<circle fill="none" stroke="#FAAF40" stroke-width="1.5" stroke-miterlimit="10" cx="50" cy="170" r="8.1"/>
	<polygon fill="#D14747" points="50,159.6 52.4,165.9 54.4,167.4 54.7,170 59,175.2 52.4,174.1 50,174 47.6,174.1 41,175.2 
		45.3,170 47,167.5 47.6,165.9 	"/>
</g>
</svg>
