<?xml version="1.0" encoding="utf-8"?>
<!-- Generator: Adobe Illustrator 18.0.0, SVG Export Plug-In . SVG Version: 6.00 Build 0)  -->
<!DOCTYPE svg PUBLIC "-//W3C//DTD SVG 1.1//EN" "http://www.w3.org/Graphics/SVG/1.1/DTD/svg11.dtd">
<svg version="1.1" id="Layer_1" xmlns="http://www.w3.org/2000/svg" xmlns:xlink="http://www.w3.org/1999/xlink" x="0px" y="0px"
	 viewBox="590 350 100 100" enable-background="new 590 350 100 100" xml:space="preserve">
<g>
	<path fill="#7BC9B3" d="M1597.6,171.2c126.4,0,228.8,102.4,228.8,228.8S1724,628.8,1597.6,628.8S1368.8,526.4,1368.8,400
		S1471.2,171.2,1597.6,171.2 M1597.6,147.2c-139.2,0-252.8,112.8-252.8,252.8c0,139.2,112.8,252.8,252.8,252.8
		S1850.4,540,1850.4,400C1849.6,260.8,1736.8,147.2,1597.6,147.2L1597.6,147.2z"/>
</g>
<g>
	<path fill="#7BC9B3" d="M640,1131.2c126.4,0,228.8,102.4,228.8,228.8S766.4,1588.8,640,1588.8S411.2,1486.4,411.2,1360
		S513.6,1131.2,640,1131.2 M640,1107.2c-139.2,0-252.8,112.8-252.8,252.8c0,139.2,112.8,252.8,252.8,252.8S892.8,1500,892.8,1360
		C892.8,1220.8,779.2,1107.2,640,1107.2L640,1107.2z"/>
</g>
<g>
	<path fill="#7BC9B3" d="M1292.8,868c126.4,0,228.8,102.4,228.8,228.8s-102.4,228.8-228.8,228.8S1064,1223.2,1064,1096.8
		S1166.4,868,1292.8,868 M1292.8,844c-139.2,0-252.8,112.8-252.8,252.8c0,139.2,112.8,252.8,252.8,252.8s252.8-112.8,252.8-252.8
		C1545.6,957.6,1432,844,1292.8,844L1292.8,844z"/>
</g>
<path fill="none" stroke="#7BC9B3" stroke-width="3" stroke-miterlimit="10" d="M1597.6,400"/>
<path fill="none" stroke="#7BC9B3" stroke-width="3" stroke-miterlimit="10" d="M1597.6,400"/>
<polygon fill="#72BE44" points="1544,434.4 1597.6,349.6 1650.4,434.4 "/>
<g>
	<path fill="#FDDB01" d="M1261.6,1186.4L1261.6,1186.4c-24-8-43.2-25.6-54.4-48l22.4-11.2c8,16.8,22.4,29.6,40,35.2L1261.6,1186.4z
		 M1334.4,1181.6l-11.2-22.4c16.8-8,29.6-22.4,35.2-40l24,8l0,0C1373.6,1151.2,1356.8,1171.2,1334.4,1181.6z M1203.2,1066.4
		L1203.2,1066.4c8-24,25.6-43.2,48-54.4l11.2,22.4c-16.8,8-29.6,22.4-35.2,40L1203.2,1066.4z M1355.2,1065.6
		c-8-16.8-22.4-28.8-40-35.2l8-23.2l0,0c24,8,43.2,24.8,54.4,48L1355.2,1065.6z"/>
	<path fill="#136AB3" d="M1235.2,1172L1235.2,1172c-20-15.2-32.8-37.6-36.8-62.4l24.8-3.2c2.4,18.4,12,35.2,27.2,46.4L1235.2,1172z
		 M1305.6,1190.4l-3.2-24.8c18.4-2.4,35.2-12,46.4-27.2l20,15.2l0,0C1352.8,1174.4,1330.4,1187.2,1305.6,1190.4z M1217.6,1039.2
		L1217.6,1039.2c15.2-20,37.6-32.8,62.4-36.8l3.2,24.8c-18.4,2.4-34.4,12-46.4,26.4L1217.6,1039.2z M1361.6,1087.2
		c-2.4-18.4-12-34.4-26.4-46.4l15.2-20l0,0c20,15.2,32.8,37.6,36,62.4L1361.6,1087.2z"/>
</g>
<g>
	<g>
		<path fill="#8ED6CE" d="M640,368.5c17.4,0,31.5,14.1,31.5,31.5s-14.1,31.5-31.5,31.5s-31.5-14.1-31.5-31.5S622.6,368.5,640,368.5
			 M640,365.2c-19.2,0-34.8,15.5-34.8,34.8s15.6,34.8,34.8,34.8s34.8-15.5,34.8-34.8C674.8,380.8,659.2,365.2,640,365.2L640,365.2z"
			/>
	</g>
	<rect x="634.4" y="394.4" fill="#BE72AE" width="11.2" height="11.2"/>
</g>
<g>
	<polygon fill="#D14747" points="640,1276.8 659.2,1327.2 712,1318.4 677.6,1360 712,1401.6 659.2,1392.8 640,1443.2 620.8,1392.8 
		568,1401.6 602.4,1360 568,1318.4 620.8,1327.2 	"/>
	<circle fill="none" stroke="#FAAF40" stroke-width="1.5" stroke-miterlimit="10" cx="640" cy="1360" r="64.8"/>
	<polygon fill="#D14747" points="640,1276.8 659.2,1327.2 675.2,1339.2 677.6,1360 712,1401.6 659.2,1392.8 640,1392 620.8,1392.8 
		568,1401.6 602.4,1360 616,1340 620.8,1327.2 	"/>
</g>
</svg>
