<?xml version="1.0" encoding="utf-8"?>
<!-- Generator: Adobe Illustrator 18.0.0, SVG Export Plug-In . SVG Version: 6.00 Build 0)  -->
<!DOCTYPE svg PUBLIC "-//W3C//DTD SVG 1.1//EN" "http://www.w3.org/Graphics/SVG/1.1/DTD/svg11.dtd">
<svg version="1.1" id="Layer_1" xmlns="http://www.w3.org/2000/svg" xmlns:xlink="http://www.w3.org/1999/xlink" x="0px" y="0px"
	 viewBox="200 100 100 100" enable-background="new 200 100 100 100" xml:space="preserve">
<g>
	<path fill="#7BC9B3" d="M-158.9,6.9c-75.6,0-136.8,61.2-136.8,136.8s61.2,136.8,136.8,136.8S-22.4,219-22.4,143.4
		C-22.4,68.1-83.6,6.9-158.9,6.9L-158.9,6.9z"/>
</g>
<g>
	<path fill="#7BC9B3" d="M23.2,519c47.4,0,85.8,38.4,85.8,85.8c0,47.4-38.4,85.8-85.8,85.8s-85.8-38.4-85.8-85.8
		C-62.6,557.4-23.9,519,23.2,519 M23.2,510c-52.2,0-94.8,42.3-94.8,94.8c0,52.2,42.3,94.8,94.8,94.8S118,657,118,604.8
		C118,552.3,75.7,510,23.2,510L23.2,510z"/>
</g>
<g>
	<path fill="#7BC9B3" d="M609.1,64.2c47.4,0,85.8,38.4,85.8,85.8s-38.4,85.8-85.8,85.8s-85.8-38.4-85.8-85.8S561.7,64.2,609.1,64.2
		 M609.1,55.2c-52.2,0-94.8,42.3-94.8,94.8c0,52.2,42.3,94.8,94.8,94.8s94.8-42.3,94.8-94.8C703.6,97.8,661.3,55.2,609.1,55.2
		L609.1,55.2z"/>
</g>
<g>
	<path fill="#7BC9B3" d="M250,424.2c47.4,0,85.8,38.4,85.8,85.8s-38.4,85.8-85.8,85.8s-85.8-38.4-85.8-85.8S202.6,424.2,250,424.2
		 M250,415.2c-52.2,0-94.8,42.3-94.8,94.8c0,52.2,42.3,94.8,94.8,94.8s94.8-42.3,94.8-94.8C344.8,457.8,302.2,415.2,250,415.2
		L250,415.2z"/>
</g>
<g>
	<path fill="#7BC9B3" d="M494.8,325.5c47.4,0,85.8,38.4,85.8,85.8s-38.4,85.8-85.8,85.8S409,458.7,409,411.3
		S447.4,325.5,494.8,325.5 M494.8,316.5c-52.2,0-94.8,42.3-94.8,94.8c0,52.2,42.3,94.8,94.8,94.8s94.8-42.3,94.8-94.8
		C589.6,359.1,547,316.5,494.8,316.5L494.8,316.5z"/>
</g>
<path fill="none" stroke="#7BC9B3" stroke-width="3" stroke-miterlimit="10" d="M609.1,150"/>
<path fill="none" stroke="#7BC9B3" stroke-width="3" stroke-miterlimit="10" d="M609.1,150"/>
<polygon fill="#72BE44" points="589,162.9 609.1,131.1 628.9,162.9 "/>
<g>
	<path fill="#FDDB01" d="M483.1,444.9L483.1,444.9c-9-3-16.2-9.6-20.4-18l8.4-4.2c3,6.3,8.4,11.1,15,13.2L483.1,444.9z M510.4,443.1
		l-4.2-8.4c6.3-3,11.1-8.4,13.2-15l9,3l0,0C525.1,431.7,518.8,439.2,510.4,443.1z M461.2,399.9L461.2,399.9c3-9,9.6-16.2,18-20.4
		l4.2,8.4c-6.3,3-11.1,8.4-13.2,15L461.2,399.9z M518.2,399.6c-3-6.3-8.4-10.8-15-13.2l3-8.7l0,0c9,3,16.2,9.3,20.4,18L518.2,399.6z
		"/>
	<path fill="#136AB3" d="M473.2,439.5L473.2,439.5c-7.5-5.7-12.3-14.1-13.8-23.4l9.3-1.2c0.9,6.9,4.5,13.2,10.2,17.4L473.2,439.5z
		 M499.6,446.4l-1.2-9.3c6.9-0.9,13.2-4.5,17.4-10.2l7.5,5.7l0,0C517.3,440.4,508.9,445.2,499.6,446.4z M466.6,389.7L466.6,389.7
		c5.7-7.5,14.1-12.3,23.4-13.8l1.2,9.3c-6.9,0.9-12.9,4.5-17.4,9.9L466.6,389.7z M520.6,407.7c-0.9-6.9-4.5-12.9-9.9-17.4l5.7-7.5
		l0,0c7.5,5.7,12.3,14.1,13.5,23.4L520.6,407.7z"/>
</g>
<rect x="7.9" y="589.5" fill="#BE72AE" width="30.6" height="30.6"/>
<g>
	<path fill="#FFFFFF" d="M-158.9,59.4c47.4,0,85.8,38.4,85.8,85.8s-38.7,85.8-85.8,85.8s-85.8-38.4-85.8-85.8
		S-206.3,59.4-158.9,59.4 M-158.9,50.4c-52.2,0-94.8,42.3-94.8,94.8c0,52.2,42.3,94.8,94.8,94.8s94.8-42.3,94.8-94.8
		C-64.4,93-106.7,50.4-158.9,50.4L-158.9,50.4z"/>
</g>
<g>
	<polygon fill="#D14747" points="250,478.8 257.2,497.7 277,494.4 264.1,510 277,525.6 257.2,522.3 250,541.2 242.8,522.3 
		223,525.6 235.9,510 223,494.4 242.8,497.7 	"/>
	<circle fill="none" stroke="#FAAF40" stroke-width="1.5" stroke-miterlimit="10" cx="250" cy="510" r="24.3"/>
	<polygon fill="#D14747" points="250,478.8 257.2,497.7 263.2,502.2 264.1,510 277,525.6 257.2,522.3 250,522 242.8,522.3 
		223,525.6 235.9,510 241,502.5 242.8,497.7 	"/>
</g>
<g>
	<path fill="none" d="M-171.5,140.4c-0.9,1.5-1.5,3-1.5,4.8s0.6,3.3,1.5,4.8c0.9-1.5,1.5-3,1.5-4.8S-170.6,141.9-171.5,140.4z"/>
	<path fill="none" d="M-149.3,137.7c-0.6-0.3-1.5,0.3-2.1,0.3h-12.9c-0.9,0-1.5-0.6-2.4-0.3c1.5,2.4,2.7,4.8,2.7,7.8
		s-0.9,5.4-2.7,7.8c0.9,0.3,1.5-0.3,2.4-0.3h12.9c0.9,0,1.5,0.3,2.1,0c-1.5-2.4-2.7-4.8-2.7-7.8S-151.1,140.1-149.3,137.7z"/>
	<path fill="none" d="M-139.7,153c0.6,0.3,1.5,0,2.1,0h24.9c4.8,0,8.7-2.7,8.7-7.5s-3.9-7.5-8.7-7.5h-24.9c-0.9,0-1.5-0.6-2.1-0.3
		c1.5,2.4,2.7,4.8,2.7,7.8S-137.9,150.6-139.7,153z"/>
	<path fill="none" d="M-144.5,140.4c-0.9,1.5-1.5,3-1.5,4.8s0.6,3.6,1.5,4.8c0.9-1.5,1.5-3,1.5-4.8S-143.6,141.9-144.5,140.4z"/>
	<path fill="none" d="M-176.3,137.7c-0.9-0.3-1.5,0.3-2.4,0.3h-24.9c-4.8,0-8.7,2.7-8.7,7.5s3.9,7.5,8.7,7.5h24.9
		c0.9,0,1.5,0.3,2.4,0c-1.5-2.4-2.7-4.5-2.7-7.8S-178.1,140.1-176.3,137.7z"/>
	<path fill="#FFFFFF" d="M-144.5,140.4c0.9,1.5,1.5,3,1.5,4.8s-0.6,3.6-1.5,4.8c1.2,1.8,3,3,4.8,3.3c1.5-2.4,2.7-5.1,2.7-8.4
		c0-3-0.9-6-2.7-8.4C-141.5,137.4-143.3,138.6-144.5,140.4z"/>
	<path fill="#FFFFFF" d="M-171.5,140.4c-1.2-1.8-2.7-3-4.8-3.6c-1.5,2.4-2.7,5.1-2.7,8.4c0,3.3,0.9,6,2.7,8.4
		c2.1-0.6,3.6-1.8,4.8-3.6c-0.9-1.5-1.5-3-1.5-4.8C-173,143.4-172.4,141.9-171.5,140.4z"/>
	<path fill="#FFFFFF" d="M-149.3,153c-0.6,0.3-1.5,0-2.1,0h-12.9c-0.9,0-1.5,0.3-2.4,0c-1.2,1.8-3,3-4.8,4.2
		c2.1,1.2,4.5,1.8,7.2,1.8h12.9c2.7,0,5.1-0.6,7.2-1.8C-146.3,156.3-148.1,154.8-149.3,153z"/>
	<path fill="#FFFFFF" d="M-166.7,137.7c0.9-0.3,1.5,0.3,2.4,0.3h12.9c0.9,0,1.5-0.6,2.1-0.3c1.2-1.8,3-3,4.8-3.9
		c-2.1-1.2-4.5-1.5-7.2-1.5h-12.9c-2.7,0-5.1,0.3-7.2,1.5C-169.7,134.7-167.9,135.9-166.7,137.7z"/>
	<path fill="#CC6666" d="M-176.3,153c-0.9,0.3-1.5,0-2.4,0h-24.9c-4.8,0-8.7-2.7-8.7-7.5s3.9-7.5,8.7-7.5h24.9
		c0.9,0,1.5-0.6,2.4-0.3c1.2-1.8,3-3,4.8-3.9c-2.1-1.2-4.5-1.5-7.2-1.5h-24.9c-8.1,0-14.7,5.4-14.7,13.5s6.6,13.5,14.7,13.5h24.9
		c2.7,0,5.1-0.6,7.2-1.8C-173.6,156-175.1,154.8-176.3,153z"/>
	<path fill="#CC6666" d="M-166.7,137.1c-2.1,0.6-3.6,1.8-4.8,3.6c0.9,1.5,1.5,3,1.5,4.8s-0.6,3.3-1.5,4.8c1.2,1.8,2.7,3,4.8,3.6
		c1.5-2.4,2.7-5.1,2.7-8.4S-165.2,139.2-166.7,137.1z"/>
	<path fill="#D39831" d="M-144.5,140.4c-1.2-1.8-3-3-4.8-3.3c-1.5,2.4-2.7,5.1-2.7,8.4c0,3,0.9,6,2.7,8.4c2.1-0.6,3.6-1.8,4.8-3.3
		c-0.9-1.5-1.5-3-1.5-4.8C-146,144-145.4,141.9-144.5,140.4z"/>
	<path fill="#D39831" d="M-112.7,132h-24.9c-2.7,0-5.1,0-7.2,1.2c1.8,1.2,3.6,3,4.8,4.8c0.6-0.3,1.5,0,2.1,0h24.9
		c4.8,0,8.7,2.7,8.7,7.5s-3.9,7.5-8.7,7.5h-24.9c-0.9,0-1.5,0.3-2.1,0c-1.2,1.8-3,3-4.8,4.2c2.1,1.2,4.5,1.8,7.2,1.8h24.9
		c8.1,0,14.7-5.4,14.7-13.5S-104.6,132-112.7,132z"/>
</g>
<g>
	<path fill="#7BC9B3" d="M-404.7,124.7c-193.4,0-350,156.6-350,350s156.6,350,350,350S-55.4,667.4-55.4,473.9
		C-55.4,281.3-212,124.7-404.7,124.7L-404.7,124.7z"/>
</g>
<g>
	<path fill="#FFFFFF" d="M-403.7,380.6c-52.2,0-94.8,42.3-94.8,94.8c0,52.2,42.3,94.8,94.8,94.8s94.8-42.3,94.8-94.8
		C-309.2,423.3-351.5,380.6-403.7,380.6L-403.7,380.6z"/>
</g>
<path fill="#FF575B" d="M-418.4,507.9c-2.4,1.7-4.8,3.8-7.6,5.4c-6.6,3.6-14.1,1.4-17.6-5.1c-1.6-3-2-6.3-0.7-9.3
	c3.4-7.7,7-15.2,10.6-22.8c2.1-4.3,4.4-8.5,6.6-12.7c3.4-6.6,13.3-7.1,17.2-0.4c2.4,4.2,4.7,8.6,6.8,13c3.1,6.3,6.1,12.7,9.1,19
	c1.7,3.5,2.9,7.2,1.6,11.2c-2.5,7.7-10.4,10.7-17.5,7.5C-412.9,512.3-415.5,509.9-418.4,507.9z M-421.4,504.4
	c-1.8-2.9-3.6-5.4-4.9-8.2c-1.7-3.4-2.8-6.9-1.5-10.8c1.5-4.3,5.9-7.2,10.4-6.7c5,0.5,8.7,3.9,8.9,8.8c0.1,2.7-0.5,5.5-1.5,8
	c-1,2.7-3,5-4.4,7.5c-0.3,0.6-0.4,1.7-0.1,2.1c2,2.4,4.5,4.3,7.5,5.3c5.8,2,11.4-2.1,10.9-8.1c-0.1-1.7-0.8-3.4-1.5-4.9
	c-4.4-9.2-8.9-18.4-13.4-27.6c-0.9-1.9-2-3.8-3.3-5.4c-2.3-2.7-5.8-2.6-8,0.3c-1.4,1.8-2.5,3.8-3.4,5.8c-4.7,9.7-9.4,19.5-14.1,29.3
	c-1.6,3.3-0.7,6.4,1.7,8.9c2.5,2.5,5.6,3,8.9,1.8C-426.1,509.1-423.6,506.9-421.4,504.4z M-418.4,500.7c2.9-3.7,5.2-7.3,5.6-11.8
	c0.3-3.3-1.9-5.7-5.3-5.9c-3.3-0.2-5.7,2-5.7,5.3C-423.8,493.2-421.2,496.8-418.4,500.7z"/>
<g>
	
		<circle fill="none" stroke="#7BC9B3" stroke-width="10" stroke-miterlimit="10" stroke-dasharray="9.9846,19.9692" cx="-403.7" cy="475.5" r="76.3"/>
</g>
<g>
	<path fill="#FFFFFF" d="M-452.7,594.7c-52.2,0-94.8,42.3-94.8,94.8c0,52.2,42.3,94.8,94.8,94.8s94.8-42.3,94.8-94.8
		C-358.2,637.3-400.5,594.7-452.7,594.7L-452.7,594.7z"/>
</g>
<path fill="#FF575B" d="M-452.7,710.3c-2.4,1.7-4.7,3.8-7.4,5.2c-6.5,3.6-13.7,1.3-17.2-5c-1.6-2.9-2-6.1-0.6-9.1
	c3.3-7.5,6.8-14.9,10.3-22.2c2-4.2,4.3-8.3,6.4-12.4c3.3-6.4,13-7,16.8-0.4c2.4,4.1,4.6,8.4,6.7,12.7c3,6.1,5.9,12.4,8.9,18.5
	c1.7,3.5,2.8,7,1.6,10.9c-2.4,7.5-10.2,10.5-17.1,7.3C-447.3,714.5-449.9,712.2-452.7,710.3z M-455.6,706.8c-1.7-2.8-3.5-5.3-4.8-8
	c-1.6-3.3-2.7-6.8-1.5-10.5c1.4-4.2,5.7-7.1,10.1-6.6c4.9,0.5,8.5,3.8,8.7,8.6c0.1,2.6-0.5,5.4-1.4,7.8c-1,2.6-2.9,4.8-4.3,7.3
	c-0.3,0.6-0.4,1.7-0.1,2c2,2.3,4.4,4.2,7.3,5.2c5.6,1.9,11.1-2.1,10.7-7.9c-0.1-1.6-0.8-3.3-1.5-4.8c-4.3-9-8.7-18-13.1-27
	c-0.9-1.8-1.9-3.7-3.2-5.3c-2.3-2.6-5.7-2.5-7.8,0.2c-1.3,1.7-2.4,3.7-3.4,5.7c-4.6,9.5-9.2,19-13.7,28.6c-1.6,3.3-0.7,6.2,1.7,8.7
	c2.4,2.5,5.5,2.9,8.7,1.7C-460.2,711.4-457.8,709.3-455.6,706.8z M-452.7,703.3c2.8-3.7,5.1-7.1,5.5-11.5c0.3-3.2-1.9-5.5-5.1-5.7
	s-5.5,1.9-5.6,5.2C-458,695.9-455.5,699.4-452.7,703.3z"/>
<g>
	
		<circle fill="none" stroke="#FFC817" stroke-width="16" stroke-miterlimit="10" stroke-dasharray="10.2466,25.6165" cx="-452.7" cy="689.5" r="62.8"/>
</g>
<g>
	<path fill="#FFFFFF" d="M-246.1,524.7c-52.2,0-94.8,42.3-94.8,94.8c0,52.2,42.3,94.8,94.8,94.8s94.8-42.3,94.8-94.8
		C-151.6,567.3-193.9,524.7-246.1,524.7L-246.1,524.7z"/>
</g>
<g>
	
		<circle fill="none" stroke="#BE72AE" stroke-width="16" stroke-miterlimit="10" stroke-dasharray="9.7406,34.092" cx="-246.1" cy="619.5" r="62.8"/>
</g>
<circle fill="none" stroke="#FF575B" stroke-width="8" stroke-linecap="round" stroke-miterlimit="10" cx="-389.9" cy="901.3" r="18.7"/>
<line fill="none" stroke="#FF575B" stroke-width="8" stroke-linecap="round" stroke-miterlimit="10" x1="-376" y1="887.1" x2="-326.7" y2="837.7"/>
<path fill="#FF575B" d="M-317.7,856.4l-10.4,10.4c-2.8,2.8-7.3,2.8-10.1,0l-5-5c-2.8-2.8-2.8-7.3,0-10.1l10.4-10.4
	c2.8-2.8,7.3-2.8,10.1,0l5,5C-314.9,849.1-314.9,853.6-317.7,856.4z"/>
<path fill="#FFC817" d="M-214.9,602.3l-3.1-3.1c-0.2-0.2-0.4-0.4-0.7-0.6c0.9-1,0.9-2.5-0.1-3.5s-2.6-1-3.6,0l-30,30
	c-2.3-1.6-5.1-2.5-8-2.5c-7.9,0-14.3,6.4-14.3,14.3c0,7.9,6.4,14.3,14.3,14.3s14.3-6.4,14.3-14.3c0-3.1-1-5.9-2.7-8.3l17.3-17.3
	c0.2,0.2,0.3,0.5,0.6,0.7l3.1,3.1c1.8,1.8,4.6,1.8,6.4,0l6.5-6.5C-213.1,607-213.1,604.1-214.9,602.3z M-260.4,646.3
	c-5.1,0-9.2-4.1-9.2-9.2c0-5.1,4.1-9.2,9.2-9.2s9.2,4.1,9.2,9.2C-251.2,642.1-255.3,646.3-260.4,646.3z"/>
<g>
	<g>
		<path fill="#FFFFFF" d="M250.1,244.3c-17.9,0-32.5,14.5-32.5,32.5c0,17.9,14.5,32.5,32.5,32.5c18,0,32.5-14.5,32.5-32.5
			C282.5,258.9,268,244.3,250.1,244.3L250.1,244.3z"/>
	</g>
	<path fill="#BE72AE" d="M252.3,300.9l-0.5-5.4c1-0.1,1.9-0.2,2.9-0.5l1.3,5.3C254.8,300.6,253.5,300.8,252.3,300.9z M239.5,298.6
		c-1.1-0.5-2.2-1.2-3.3-1.9l3.2-4.5c0.8,0.5,1.6,1.1,2.5,1.5L239.5,298.6z M267.3,293.9l-3.9-3.9c0.7-0.7,1.3-1.4,1.9-2.2l4.4,3.2
		C269,292.1,268.1,293,267.3,293.9z M227.9,286.7c-0.5-1.1-0.9-2.3-1.3-3.5l5.3-1.4c0.2,0.9,0.6,1.8,1,2.7L227.9,286.7z
		 M274.2,278.9l-5.4-0.5c0-0.5,0.1-1.1,0.1-1.6c0-0.4,0-0.9,0-1.3v-0.1l5.5-0.4v0.1c0,0.6,0.1,1.2,0.1,1.7
		C274.3,277.5,274.3,278.2,274.2,278.9z M232.1,271.6l-5.3-1.5c0.3-1.2,0.8-2.4,1.3-3.5l5,2.3C232.7,269.8,232.3,270.7,232.1,271.6z
		 M265.4,266c-0.5-0.8-1.2-1.5-1.8-2.2l3.9-3.8c0.9,0.9,1.7,1.9,2.4,2.9L265.4,266z M239.6,261.2l-3.1-4.5c1-0.7,2.1-1.3,3.3-1.8
		l2.3,5C241.2,260.2,240.4,260.7,239.6,261.2z M254.9,258.6c-0.9-0.2-1.9-0.4-2.8-0.5l0.5-5.4c1.2,0.1,2.5,0.3,3.7,0.7L254.9,258.6z
		"/>
	<path fill="#FFC817" d="M260.8,270.9l-1.1-1.1c-0.1-0.1-0.1-0.1-0.2-0.2c0.3-0.3,0.3-0.9,0-1.2c-0.3-0.3-0.9-0.3-1.2,0l-10.3,10.3
		c-0.8-0.5-1.7-0.9-2.7-0.9c-2.7,0-4.9,2.2-4.9,4.9c0,2.7,2.2,4.9,4.9,4.9c2.7,0,4.9-2.2,4.9-4.9c0-1.1-0.3-2-0.9-2.8l5.9-5.9
		c0.1,0.1,0.1,0.2,0.2,0.2l1.1,1.1c0.6,0.6,1.6,0.6,2.2,0l2.2-2.2C261.4,272.5,261.4,271.5,260.8,270.9z M245.2,286
		c-1.7,0-3.2-1.4-3.2-3.2c0-1.7,1.4-3.2,3.2-3.2c1.7,0,3.2,1.4,3.2,3.2C248.4,284.6,246.9,286,245.2,286z"/>
</g>
<g>
	<path fill="#7BC9B3" d="M-360.4,445.7v3.1c0,1.8-1.4,3.2-3.2,3.2h-12.6c-1.8,0-3.2,1.4-3.2,3.2v12.6c0,1.8-1.4,3.2-3.2,3.2h-3.1
		c-1.8,0-3.2-1.4-3.2-3.2v-12.6c0-1.8-1.4-3.2-3.2-3.2h-12.6c-1.8,0-3.2-1.4-3.2-3.2v-3.1c0-1.8,1.4-3.2,3.2-3.2h12.6
		c1.8,0,3.2-1.4,3.2-3.2v-12.6c0-1.8,1.4-3.2,3.2-3.2h3.1c1.8,0,3.2,1.4,3.2,3.2v12.6c0,1.8,1.4,3.2,3.2,3.2h12.6
		C-361.9,442.5-360.4,443.9-360.4,445.7z"/>
</g>
<g>
	<g>
		<g>
			<path fill="#FFFFFF" d="M360.1,118.1c-18,0-32.7,14.6-32.7,32.7c0,18,14.6,32.7,32.7,32.7c18.1,0,32.7-14.6,32.7-32.7
				C392.7,132.8,378.1,118.1,360.1,118.1L360.1,118.1z"/>
		</g>
		<path fill="#7BC9B3" d="M361.2,180.4l-0.1-3.4c0.3,0,0.5,0,0.8,0c0.8-0.1,1.6-0.1,2.4-0.3l0.6,3.4c-0.9,0.1-1.8,0.3-2.7,0.3
			C361.8,180.4,361.5,180.4,361.2,180.4z M354,179.8c-1.2-0.2-2.4-0.6-3.5-1l1.1-3.3c1,0.3,2.1,0.6,3.1,0.9L354,179.8z M371.8,178
			l-1.4-3.2c1-0.4,2-0.9,2.9-1.5l1.8,3C374.1,177,373,177.5,371.8,178z M343.9,175.6c-1-0.7-2-1.4-2.9-2.2l2.2-2.6
			c0.8,0.7,1.7,1.3,2.6,1.9L343.9,175.6z M380.9,171.9l-2.4-2.5c0.8-0.8,1.5-1.6,2.2-2.4l2.7,2.1
			C382.6,170.1,381.7,171.1,380.9,171.9z M336,168.1c-0.7-1-1.4-2-1.9-3.1l3-1.7c0.5,0.9,1.1,1.9,1.7,2.7L336,168.1z M387.1,163
			l-3.1-1.4c0.4-1,0.8-2,1.1-3l3.3,1C388,160.7,387.6,161.9,387.1,163z M331.4,158.3c-0.3-1.2-0.5-2.4-0.7-3.6l3.4-0.4
			c0.1,1.1,0.3,2.1,0.6,3.2L331.4,158.3z M389.7,152.4l-3.4-0.2c0-0.5,0-0.9,0-1.4c0-0.6,0-1.2-0.1-1.8l3.4-0.3l0,0.1
			c0,0.7,0.1,1.4,0.1,2.1C389.7,151.3,389.7,151.9,389.7,152.4z M334,147.8l-3.4-0.4c0.1-1.2,0.4-2.4,0.6-3.6l3.4,0.8
			C334.3,145.6,334.2,146.7,334,147.8z M385,142.6c-0.3-1-0.7-2-1.2-3l3.1-1.5c0.5,1.1,1,2.2,1.3,3.4L385,142.6z M336.9,138.6
			l-3.1-1.6c0.6-1.1,1.2-2.1,1.9-3.1l2.8,2C337.9,136.7,337.4,137.6,336.9,138.6z M380.3,134.2c-0.7-0.8-1.4-1.6-2.2-2.4l2.4-2.5
			c0.9,0.8,1.7,1.7,2.5,2.7L380.3,134.2z M342.9,131l-2.3-2.6c0.9-0.8,1.9-1.5,2.9-2.2l1.9,2.9C344.5,129.7,343.7,130.3,342.9,131z
			 M373,128c-0.9-0.5-1.9-1-2.9-1.4l1.3-3.2c1.1,0.5,2.2,1,3.3,1.6L373,128z M351.1,126.1l-1.2-3.2c1.1-0.4,2.3-0.8,3.5-1l0.8,3.4
			C353.2,125.5,352.2,125.8,351.1,126.1z M363.9,124.9c-1.1-0.2-2.1-0.2-3.2-0.3l0.1-3.5c1.2,0,2.4,0.1,3.6,0.3L363.9,124.9z"/>
		<path fill="#FFC817" d="M361.3,175.4l-0.3-5.5c1-0.1,2-0.2,3-0.4l1.1,5.4C363.9,175.2,362.6,175.4,361.3,175.4z M350,173.3
			c-1.2-0.5-2.3-1.2-3.4-1.9l3-4.6c0.8,0.5,1.7,1,2.6,1.4L350,173.3z M375.6,169.9l-3.5-4.3c0.8-0.6,1.5-1.3,2.2-2.1l4.1,3.7
			C377.6,168.2,376.6,169.1,375.6,169.9z M338.7,163c-0.6-1.1-1.2-2.3-1.7-3.5l5.2-2c0.4,0.9,0.8,1.9,1.3,2.7L338.7,163z
			 M383.9,157.1l-5.3-1.4c0.3-1,0.4-2,0.5-3l5.5,0.6C384.5,154.6,384.2,155.9,383.9,157.1z M341,148.7l-5.5-0.6
			c0.1-1.3,0.4-2.6,0.7-3.8l5.3,1.5C341.3,146.7,341.1,147.7,341,148.7z M378,144.1c-0.3-0.9-0.8-1.9-1.3-2.7l4.8-2.7
			c0.6,1.1,1.2,2.3,1.6,3.5L378,144.1z M345.9,137.9l-4.1-3.7c0.9-1,1.8-1.8,2.8-2.6l3.4,4.3C347.3,136.4,346.6,137.1,345.9,137.9z
			 M370.7,134.8c-0.8-0.6-1.7-1-2.6-1.5l2.3-5c1.2,0.5,2.3,1.2,3.4,1.9L370.7,134.8z M356.2,132l-1.1-5.4c1.3-0.3,2.6-0.4,3.9-0.5
			l0.2,5.5C358.2,131.7,357.2,131.8,356.2,132z"/>
	</g>
	<g>
		<path fill="#FF575B" d="M351.1,141.4c0.9-0.2,2-0.3,3.1-0.4c1.1-0.1,2.3-0.2,3.4-0.2c1.2,0,2.3,0.1,3.5,0.3
			c1.2,0.2,2.2,0.6,3.2,1.1s1.7,1.4,2.3,2.4c0.6,1,0.9,2.4,0.9,4c0,1.5-0.3,2.7-0.8,3.8c-0.5,1-1.2,1.9-2.1,2.5
			c-0.9,0.7-1.8,1.1-2.9,1.4c-1.1,0.3-2.2,0.4-3.4,0.4c-0.1,0-0.3,0-0.5,0c-0.2,0-0.5,0-0.8,0c-0.3,0-0.5,0-0.8,0
			c-0.3,0-0.4,0-0.6-0.1v8.1h-4.6V141.4z M358,144.8c-0.5,0-0.9,0-1.3,0.1s-0.7,0.1-1,0.1v7.7c0.1,0,0.2,0,0.4,0.1
			c0.2,0,0.4,0,0.6,0.1c0.2,0,0.4,0,0.6,0c0.2,0,0.3,0,0.4,0c0.6,0,1.2-0.1,1.8-0.2c0.6-0.1,1.1-0.3,1.6-0.6
			c0.5-0.3,0.8-0.7,1.1-1.3c0.3-0.5,0.4-1.2,0.4-2.1c0-0.7-0.1-1.4-0.4-1.8c-0.3-0.5-0.6-0.9-1.1-1.2c-0.4-0.3-0.9-0.5-1.5-0.6
			C359.1,144.9,358.6,144.8,358,144.8z"/>
	</g>
	<g>
		<g>
			<path fill="#FF575B" d="M375.7,139v0.8c0,0.5-0.4,0.8-0.8,0.8h-3.3c-0.5,0-0.8,0.4-0.8,0.8v3.3c0,0.5-0.4,0.8-0.8,0.8h-0.8
				c-0.5,0-0.8-0.4-0.8-0.8v-3.3c0-0.5-0.4-0.8-0.8-0.8h-3.3c-0.5,0-0.8-0.4-0.8-0.8V139c0-0.5,0.4-0.8,0.8-0.8h3.3
				c0.5,0,0.8-0.4,0.8-0.8V134c0-0.5,0.4-0.8,0.8-0.8h0.8c0.5,0,0.8,0.4,0.8,0.8v3.3c0,0.5,0.4,0.8,0.8,0.8h3.3
				C375.4,138.2,375.7,138.6,375.7,139z"/>
		</g>
	</g>
</g>
<g>
	<g>
		<path fill="#FFFFFF" d="M249.7,118.1c-17.7,0-32,14.4-32,32s14.4,32,32,32c17.8,0,32-14.4,32-32
			C281.6,132.4,267.3,118.1,249.7,118.1L249.7,118.1z"/>
	</g>
	<path fill="#FFC817" d="M247.9,174c-1.3-0.1-2.6-0.3-3.8-0.6l1.3-5.3c1,0.2,2,0.4,2.9,0.5L247.9,174z M257.5,172.7l-1.8-5.1
		c1-0.3,1.9-0.8,2.8-1.2l2.6,4.7C259.9,171.7,258.7,172.3,257.5,172.7z M235.2,169.3c-1.1-0.8-2.1-1.7-2.9-2.6l3.9-3.7
		c0.7,0.7,1.5,1.4,2.3,2L235.2,169.3z M268.5,164.9l-4.2-3.3c0.6-0.8,1.2-1.7,1.7-2.6l4.7,2.7C270,162.8,269.2,163.9,268.5,164.9z
		 M227.2,158.5c-0.5-1.2-0.8-2.5-1.1-3.7l5.3-1.1c0.2,1,0.5,2,0.8,2.9L227.2,158.5z M273.5,152.4l-5.4-0.5c0.1-0.6,0.1-1.2,0.1-1.8
		c0-0.4,0-0.9,0-1.3v-0.1l5.4-0.4v0.1c0,0.6,0.1,1.2,0.1,1.7C273.6,150.9,273.6,151.6,273.5,152.4z M231.5,146.2l-5.3-1.2
		c0.3-1.3,0.7-2.6,1.2-3.7l5,2C232,144.2,231.7,145.2,231.5,146.2z M266.1,141.6c-0.5-0.9-1-1.8-1.6-2.6l4.3-3.2
		c0.8,1.1,1.5,2.2,2.1,3.3L266.1,141.6z M236.5,136.9l-3.8-3.8c0.9-0.9,2-1.8,2.9-2.6l3.1,4.4C238,135.7,237.2,136.3,236.5,136.9z
		 M258.8,134c-0.9-0.5-1.8-0.9-2.8-1.3l1.9-5.1c1.2,0.5,2.4,1,3.5,1.7L258.8,134z M245.7,132l-1.2-5.3c1.1-0.2,2.3-0.4,3.4-0.5
		c0.1,0,0.3,0,0.4,0l0.3,5.4c-0.1,0-0.2,0-0.3,0C247.4,131.6,246.5,131.8,245.7,132z"/>
	<g>
		<path fill="#FF575B" d="M252.5,156c0-0.7-0.3-1.3-0.8-1.8c-0.5-0.4-1.2-0.9-2-1.2c-0.8-0.4-1.7-0.8-2.6-1.1
			c-0.9-0.4-1.8-0.9-2.6-1.5c-0.8-0.6-1.5-1.3-2-2.1c-0.5-0.9-0.8-1.9-0.8-3.3c0-1.1,0.2-2.1,0.6-3c0.4-0.8,0.9-1.5,1.6-2.1
			c0.7-0.6,1.5-1,2.5-1.2c1-0.3,2-0.4,3.2-0.4c1.4,0,2.7,0.1,3.9,0.4c1.2,0.2,2.2,0.6,3,1l-1.5,3.9c-0.5-0.3-1.2-0.6-2.2-0.9
			s-2.1-0.4-3.2-0.4c-1.1,0-1.9,0.2-2.5,0.6s-0.9,1-0.9,1.7c0,0.7,0.3,1.2,0.8,1.7c0.5,0.5,1.2,0.9,2,1.2c0.8,0.4,1.7,0.8,2.6,1.2
			c0.9,0.4,1.8,0.9,2.6,1.5s1.5,1.3,2,2.1c0.5,0.8,0.8,1.9,0.8,3.2s-0.2,2.3-0.6,3.3c-0.4,0.9-1,1.7-1.8,2.3
			c-0.8,0.6-1.7,1.1-2.7,1.3c-1.1,0.3-2.2,0.4-3.5,0.4c-1.7,0-3.2-0.2-4.5-0.5c-1.3-0.3-2.2-0.6-2.8-0.9l1.5-3.9
			c0.2,0.1,0.6,0.3,1,0.4c0.4,0.2,0.8,0.3,1.3,0.4c0.5,0.1,1,0.2,1.6,0.3c0.6,0.1,1.1,0.1,1.7,0.1c1.4,0,2.4-0.2,3.2-0.7
			C252.1,157.6,252.5,156.9,252.5,156z"/>
	</g>
</g>
</svg>
