<?xml version="1.0" encoding="utf-8"?>
<!-- Generator: Adobe Illustrator 18.0.0, SVG Export Plug-In . SVG Version: 6.00 Build 0)  -->
<!DOCTYPE svg PUBLIC "-//W3C//DTD SVG 1.1//EN" "http://www.w3.org/Graphics/SVG/1.1/DTD/svg11.dtd">
<svg version="1.1" id="Layer_1" xmlns="http://www.w3.org/2000/svg" xmlns:xlink="http://www.w3.org/1999/xlink" x="0px" y="0px"
	 viewBox="0 0 100 100" enable-background="new 0 0 100 100" xml:space="preserve">
<g>
	<path fill="#7BC9B3" d="M-198.2,117.4c15.8,0,28.6,12.8,28.6,28.6s-12.8,28.6-28.6,28.6s-28.6-12.8-28.6-28.6
		S-213.9,117.4-198.2,117.4 M-198.2,114.4c-17.4,0-31.6,14.1-31.6,31.6c0,17.4,14.1,31.6,31.6,31.6s31.6-14.1,31.6-31.6
		C-166.6,128.5-180.7,114.4-198.2,114.4L-198.2,114.4z"/>
</g>
<g>
	<path fill="#7BC9B3" d="M-33,109.6c15.8,0,28.6,12.8,28.6,28.6s-12.8,28.6-28.6,28.6s-28.6-12.8-28.6-28.6S-48.7,109.6-33,109.6
		 M-33,106.6c-17.4,0-31.6,14.1-31.6,31.6c0,17.4,14.1,31.6,31.6,31.6s31.6-14.1,31.6-31.6C-1.4,120.8-15.5,106.6-33,106.6
		L-33,106.6z"/>
</g>
<g>
	<path fill="#7BC9B3" d="M50,21.4c15.8,0,28.6,12.8,28.6,28.6S65.8,78.6,50,78.6S21.4,65.8,21.4,50S34.2,21.4,50,21.4 M50,18.4
		c-17.4,0-31.6,14.1-31.6,31.6c0,17.4,14.1,31.6,31.6,31.6S81.6,67.4,81.6,50C81.6,32.6,67.4,18.4,50,18.4L50,18.4z"/>
</g>
<g>
	<path fill="#7BC9B3" d="M299.8,117.4c15.8,0,28.6,12.8,28.6,28.6s-12.8,28.6-28.6,28.6s-28.6-12.8-28.6-28.6
		S284.1,117.4,299.8,117.4 M299.8,114.4c-17.4,0-31.6,14.1-31.6,31.6c0,17.4,14.1,31.6,31.6,31.6s31.6-14.1,31.6-31.6
		C331.4,128.5,317.3,114.4,299.8,114.4L299.8,114.4z"/>
</g>
<path fill="none" stroke="#7BC9B3" stroke-width="3" stroke-miterlimit="10" d="M-33,138.2"/>
<path fill="none" stroke="#7BC9B3" stroke-width="3" stroke-miterlimit="10" d="M-33,138.2"/>
<polygon fill="#72BE44" points="-39.6,142.5 -33,131.9 -26.3,142.5 "/>
<g>
	<path fill="#FDDB01" d="M296,157.1L296,157.1c-3-1-5.4-3.2-6.8-6l2.8-1.4c1,2.1,2.8,3.7,5,4.4L296,157.1z M305,156.6l-1.4-2.8
		c2.1-1,3.7-2.8,4.4-5l3,1l0,0C310,152.8,307.8,155.2,305,156.6z M288.6,142.1L288.6,142.1c1-3,3.2-5.4,6-6.8l1.4,2.8
		c-2.1,1-3.7,2.8-4.4,5L288.6,142.1z M307.7,142.1c-1-2.1-2.8-3.6-5-4.4l1-2.9l0,0c3,1,5.4,3.1,6.8,6L307.7,142.1z"/>
	<path fill="#136AB3" d="M292.6,155.4L292.6,155.4c-2.5-1.9-4.1-4.7-4.6-7.8l3.1-0.4c0.3,2.3,1.5,4.4,3.4,5.8L292.6,155.4z
		 M301.4,157.7l-0.4-3.1c2.3-0.3,4.4-1.5,5.8-3.4l2.5,1.9l0,0C307.3,155.6,304.5,157.3,301.4,157.7z M290.4,138.8L290.4,138.8
		c1.9-2.5,4.7-4.1,7.8-4.6l0.4,3.1c-2.3,0.3-4.3,1.5-5.8,3.3L290.4,138.8z M308.5,144.8c-0.3-2.3-1.5-4.3-3.3-5.8l1.9-2.5l0,0
		c2.5,1.9,4.1,4.7,4.5,7.8L308.5,144.8z"/>
</g>
<rect x="-203.2" y="140.9" fill="#BE72AE" width="10.2" height="10.2"/>
<g>
	<polygon fill="#D14747" points="50,39.6 52.4,45.9 59,44.8 54.7,50 59,55.2 52.4,54.1 50,60.4 47.6,54.1 41,55.2 45.3,50 41,44.8 
		47.6,45.9 	"/>
	<circle fill="none" stroke="#FAAF40" stroke-width="1.5" stroke-miterlimit="10" cx="50" cy="50" r="8.1"/>
	<polygon fill="#D14747" points="50,39.6 52.4,45.9 54.4,47.4 54.7,50 59,55.2 52.4,54.1 50,54 47.6,54.1 41,55.2 45.3,50 47,47.5 
		47.6,45.9 	"/>
</g>
</svg>
