<?xml version="1.0" encoding="utf-8"?>
<!-- Generator: Adobe Illustrator 18.0.0, SVG Export Plug-In . SVG Version: 6.00 Build 0)  -->
<!DOCTYPE svg PUBLIC "-//W3C//DTD SVG 1.1//EN" "http://www.w3.org/Graphics/SVG/1.1/DTD/svg11.dtd">
<svg version="1.1" id="Layer_1" xmlns="http://www.w3.org/2000/svg" xmlns:xlink="http://www.w3.org/1999/xlink" x="0px" y="0px"
	 viewBox="0 0 270 300" enable-background="new 0 0 270 300" xml:space="preserve">
<g>
	<path fill="#7BCAB4" d="M135.4,52.4c-49.5,0-89.9,40.4-89.9,89.9c0,34.5,19.7,65.7,50.4,80.7v0.1l40.5,29.3l0.4,0.3l0.4,0.1
		c0.4,0.1,1.9,0.9,3.8,0.9c1.2,0,2.2-0.3,3.3-0.7c3.4-1.8,4-5.8,4.1-6.7v-93.9v-0.6c-0.1-1.3-0.6-3.8-1.5-5.5
		c-0.7-1.5-2.7-3.7-3.7-4.9l-0.3-0.3l-34.9-25.1h42.6c5.5,0,9.9,4.4,9.9,9.9v74.5c0,5.2,2.1,12.1,8,15.8c3.4,2.2,9.3,3.8,17.7-0.3
		c23.1-11.2,38.7-40.8,38.7-73.8C225.3,92.7,184.9,52.4,135.4,52.4z M138.6,150.4c0.1,0.3,0.4,1.5,0.6,2.4v90.6l-34.5-24.8v-93.7
		l31.8,23.1C137.6,148.9,138.5,150.1,138.6,150.4z M182.5,207.9c-2.7,1.3-6.2,2.4-9,0.7c-2.7-1.6-3.7-5.3-3.7-8.1V126
		c0-10.5-8.6-19.1-19.1-19.1H95.9v0.1h-0.1v105.7c-25.3-14.2-41.3-41.1-41.3-70.5c0-44.5,36.2-80.9,80.9-80.9
		c44.7,0,80.9,36.2,80.9,80.9C216.1,171.8,202.6,198.2,182.5,207.9z"/>
	<circle fill="#7BCAB4" cx="130.8" cy="193" r="3.7"/>
</g>
</svg>
