<?xml version="1.0" encoding="utf-8"?>
<!-- Generator: Adobe Illustrator 18.0.0, SVG Export Plug-In . SVG Version: 6.00 Build 0)  -->
<!DOCTYPE svg PUBLIC "-//W3C//DTD SVG 1.1//EN" "http://www.w3.org/Graphics/SVG/1.1/DTD/svg11.dtd">
<svg version="1.1" id="Layer_1" xmlns="http://www.w3.org/2000/svg" xmlns:xlink="http://www.w3.org/1999/xlink" x="0px" y="0px"
	 viewBox="0 0 1280 800" enable-background="new 0 0 1280 800" xml:space="preserve">
<g>
	<path fill="#8ED6CE" d="M641.1,139.7c-132,0-239.7,107.7-239.7,239.7c0,92,52.5,175.2,134.4,215.2v0.3l108,78.1l1.1,0.8l1.1,0.3
		c1.1,0.3,5.1,2.4,10.1,2.4c3.2,0,5.9-0.8,8.8-1.9c9.1-4.8,10.7-15.5,10.9-17.9V406.4v-1.6c-0.3-3.5-1.6-10.1-4-14.7
		c-1.9-4-7.2-9.9-9.9-13.1l-0.8-0.8L568,309.3h113.6c14.7,0,26.4,11.7,26.4,26.4v198.7c0,13.9,5.6,32.3,21.3,42.1
		c9.1,5.9,24.8,10.1,47.2-0.8c61.6-29.9,103.2-108.8,103.2-196.8C880.8,247.2,773.1,139.7,641.1,139.7z M649.6,401.1
		c0.3,0.8,1.1,4,1.6,6.4v241.6l-92-66.1V333.1l84.8,61.6C646.9,397.1,649.3,400.3,649.6,401.1z M766.7,554.4
		c-7.2,3.5-16.5,6.4-24,1.9c-7.2-4.3-9.9-14.1-9.9-21.6V336c0-28-22.9-50.9-50.9-50.9H535.7v0.3h-0.3v281.9
		c-67.5-37.9-110.1-109.6-110.1-188c0-118.7,96.5-215.7,215.7-215.7S856.8,260,856.8,379.2C856.3,458.1,820.3,528.5,766.7,554.4z"/>
	<circle fill="#8ED6CE" cx="628.8" cy="514.7" r="9.9"/>
</g>
</svg>
