<?xml version="1.0" encoding="utf-8"?>
<!-- Generator: Adobe Illustrator 18.0.0, SVG Export Plug-In . SVG Version: 6.00 Build 0)  -->
<!DOCTYPE svg PUBLIC "-//W3C//DTD SVG 1.1//EN" "http://www.w3.org/Graphics/SVG/1.1/DTD/svg11.dtd">
<svg version="1.1" id="Layer_1" xmlns="http://www.w3.org/2000/svg" xmlns:xlink="http://www.w3.org/1999/xlink" x="0px" y="0px"
	 viewBox="0 0 1280 800" enable-background="new 0 0 1280 800" xml:space="preserve">
<g>
	<path fill="#8ED6CE" d="M89.1,356.5c0-12.3,6.4-16.1,16.1-16.1H150c32,0,40.4,17.9,40.4,32.8c0,12.8-7.7,25.6-20.5,28.2v0.8
		c14.1,2,16.1,12.3,16.1,24.3c0,13.6,3.8,18.7,3.8,24.3c0,6.4-6.4,10.2-12.8,10.2c-14.6,0-16.1-14.1-16.1-19.2
		c0-20.5-3.8-29.4-18.7-29.4h-27.1v34.6c0,8.4-5.1,13.6-13.6,13.6s-13.6-5.1-13.6-13.6v-90.4H89.1z M116,393.6h26.9
		c10.2,0,20.5-2.6,20.5-16.1c0-12.8-7.7-16.1-20-16.1h-27.6C115.7,361.6,115.7,393.6,116,393.6z"/>
	<path fill="#8ED6CE" d="M242.7,380.8c26.4,0,39.7,17.9,39.7,40.4c0,21.8-10.2,40.4-39.7,40.4S203,442.5,203,421.2
		C203,398.2,217.1,380.8,242.7,380.8z M242.7,445.6c12.8,0,18.7-11.5,18.7-24.3c0-14.1-5.9-24.3-18.7-24.3S224,407.2,224,421.2
		C224.8,434,229.9,445.6,242.7,445.6z"/>
	<path fill="#8ED6CE" d="M332.8,380.8c26.4,0,39.7,17.9,39.7,40.4c0,21.8-10.2,40.4-39.7,40.4s-39.7-19.2-39.7-40.4
		C293.1,398.2,307.2,380.8,332.8,380.8z M332.8,445.6c12.8,0,18.7-11.5,18.7-24.3c0-14.1-5.9-24.3-18.7-24.3
		c-12.8,0-18.7,10.2-18.7,24.3C314.4,434,320,445.6,332.8,445.6z"/>
	<path fill="#8ED6CE" d="M386.6,391.8c0-6.4,3.8-11,10.2-11s10.2,4.6,10.2,11v2.6l0,0c5.9-8.4,14.8-13.3,26.4-13.3
		c7.7,0,16.6,3.3,20.5,13.3c5.9-8.4,13.6-13.3,25.6-13.3c14.8,0,26.9,6.9,26.9,26.1v44c0,5.9-2.6,11-10.8,11
		c-8.4,0-10.8-5.1-10.8-11v-38.4c0-7.7-3.3-14.1-11.5-14.1c-8.2,0-15.4,6.4-15.4,16.6v35.8c0,5.9-2.6,11-11,11
		c-8.4,0-10.8-5.1-10.8-11v-38.4c0-7.7-3.3-14.1-11.5-14.1c-8.4,0-15.4,6.4-15.4,16.6v35.8c0,5.9-2.6,11-11,11c-8.4,0-11-5.1-11-11
		v-59.4H386.6z"/>
	<path fill="#8ED6CE" d="M560.1,363.6h-25.6c-7.7,0-14.1-3.8-14.1-11.5c0-7.7,6.4-11.5,14.1-11.5h78.1c7.7,0,14.1,3.8,14.1,11.5
		c0,7.7-6.4,11.5-14.1,11.5H587v84.5c0,8.4-5.1,13.6-13.6,13.6s-13.6-5.1-13.6-13.6v-84.5H560.1z"/>
	<path fill="#8ED6CE" d="M652.3,380.8c26.4,0,39.7,17.9,39.7,40.4c0,21.8-10.2,40.4-39.7,40.4s-39.7-19.2-39.7-40.4
		C612.6,398.2,625.9,380.8,652.3,380.8z M652.3,445.6c12.8,0,18.7-11.5,18.7-24.3c0-14.1-5.9-24.3-18.7-24.3
		c-12.8,0-18.7,10.2-18.7,24.3C633.6,434,639.5,445.6,652.3,445.6z"/>
	<path fill="#8ED6CE" d="M728.3,352.1c0-11,7.7-13.6,14.8-13.6h7.7c8.4,0,12.3,3.3,15.4,12.3l23.8,76.3h0.8l23-76.3
		c2.6-9,7.2-12.3,15.4-12.3h7.7c7.2,0,14.8,2.6,14.8,13.6v96c0,7.2-3.3,13.6-12.3,13.6s-12-6.4-12-13.6v-73h-0.8l-25.3,78.6
		c-2,5.9-5.9,7.7-11.5,7.7c-5.6,0-9.7-2.6-11.5-7.7l-25.1-78.8h-0.5v73.7c0,7.2-3.3,13.6-12.3,13.6c-9,0-12.3-6.4-12.3-13.6v-96.5
		H728.3z"/>
	<path fill="#8ED6CE" d="M906.2,380.8c26.4,0,39.7,17.9,39.7,40.4c0,21.8-10.2,40.4-39.7,40.4s-39.7-19.2-39.7-40.4
		C866.6,398.2,880.6,380.8,906.2,380.8z M906.2,445.6c12.8,0,18.7-11.5,18.7-24.3c0-14.1-5.9-24.3-18.7-24.3s-18.4,10.2-18.4,24.3
		C888.3,434,893.4,445.6,906.2,445.6z"/>
	<path fill="#8ED6CE" d="M960,391.8c0-6.4,3.3-11,9.7-11c6.4,0,9.7,4.6,9.7,11v2.6l0,0c5.9-7.7,14.1-13.3,26.4-13.3
		c12.8,0,26.9,6.4,26.9,28.2v41.7c0,5.9-2.6,11-11,11s-10.8-5.1-10.8-11v-38.1c0-9-4.6-14.8-13.6-14.8c-7.7,0-16.6,6.4-16.6,16.6
		v35.3c0,5.9-2.6,11-11,11c-8.4,0-11-5.1-11-11v-58.4h1.3V391.8z"/>
	<path fill="#8ED6CE" d="M1068.3,425.1c0,11.5,7.7,20,20,20c16.1,0,16.1-11,25.1-11c5.1,0,9,4.6,9,8.4c0,12.8-20.5,19.2-34,19.2
		c-30.2,0-41.7-20.5-41.7-39.2c0-25.1,15.4-41.7,41-41.7c25.1,0,39.2,17.4,39.2,35.3c0,7.7-2,9.7-9.7,9.7h-48.6V425.1z
		 M1105.9,412.8c-1.3-9.7-8.4-17.4-17.9-17.4c-11,0-17.4,6.4-20,17.4H1105.9z"/>
	<path fill="#8ED6CE" d="M1168.6,439.2L1168.6,439.2l13.6-48.6c1.3-5.9,4.6-9.7,10.2-9.7c8.4,0,10.8,7.2,10.8,9.7c0,2-0.8,3.8-2,7.2
		l-24.8,70.4c-5.1,14.8-11,22.5-24.3,22.5c-9.7,0-13.6-4.6-13.6-9.7c0-5.9,3.8-9,9.7-9h2c2.6,0,5.6,0,7.7-7.2l-22.5-64
		c-2-5.1-2.6-7.7-2.6-10.2c0-5.9,4.6-10.2,10.2-10.2c5.6,0,9.7,3.3,11,8.4L1168.6,439.2z"/>
</g>
</svg>
