<?xml version="1.0" encoding="utf-8"?>
<!-- Generator: Adobe Illustrator 18.0.0, SVG Export Plug-In . SVG Version: 6.00 Build 0)  -->
<!DOCTYPE svg PUBLIC "-//W3C//DTD SVG 1.1//EN" "http://www.w3.org/Graphics/SVG/1.1/DTD/svg11.dtd">
<svg version="1.1" id="svg_logoType" xmlns="http://www.w3.org/2000/svg" xmlns:xlink="http://www.w3.org/1999/xlink" x="0px"
	 y="0px" viewBox="0 181 500 138" enable-background="new 0 181 500 138" xml:space="preserve">
<g>
	<path fill="#8ED6CE" d="M34.8,227.7c0-4.8,2.5-6.3,6.3-6.3h17.5c12.5,0,15.8,7,15.8,12.8c0,5-3,10-8,11v0.3
		c5.5,0.8,6.3,4.8,6.3,9.5c0,5.3,1.5,7.3,1.5,9.5c0,2.5-2.5,4-5,4c-5.7,0-6.3-5.5-6.3-7.5c0-8-1.5-11.5-7.3-11.5H45V263
		c0,3.3-2,5.3-5.3,5.3s-5.3-2-5.3-5.3v-35.3L34.8,227.7L34.8,227.7z M45.3,242.2h10.5c4,0,8-1,8-6.3c0-5-3-6.3-7.8-6.3H45.2
		C45.2,229.7,45.2,242.2,45.3,242.2z"/>
	<path fill="#8ED6CE" d="M94.8,237.2c10.3,0,15.5,7,15.5,15.8c0,8.5-4,15.8-15.5,15.8s-15.5-7.5-15.5-15.8
		C79.3,244,84.8,237.2,94.8,237.2z M94.8,262.5c5,0,7.3-4.5,7.3-9.5c0-5.5-2.3-9.5-7.3-9.5s-7.3,4-7.3,9.5
		C87.8,257.9,89.8,262.5,94.8,262.5z"/>
	<path fill="#8ED6CE" d="M130,237.2c10.3,0,15.5,7,15.5,15.8c0,8.5-4,15.8-15.5,15.8s-15.5-7.5-15.5-15.8
		C114.5,244,120,237.2,130,237.2z M130,262.5c5,0,7.3-4.5,7.3-9.5c0-5.5-2.3-9.5-7.3-9.5s-7.3,4-7.3,9.5
		C122.8,257.9,125,262.5,130,262.5z"/>
	<path fill="#8ED6CE" d="M151,241.5c0-2.5,1.5-4.3,4-4.3c2.5,0,4,1.8,4,4.3v1l0,0c2.3-3.3,5.8-5.2,10.3-5.2c3,0,6.5,1.3,8,5.2
		c2.3-3.3,5.3-5.2,10-5.2c5.8,0,10.5,2.7,10.5,10.2v17.2c0,2.3-1,4.3-4.2,4.3c-3.3,0-4.2-2-4.2-4.3v-15c0-3-1.3-5.5-4.5-5.5
		c-3.2,0-6,2.5-6,6.5v14c0,2.3-1,4.3-4.3,4.3c-3.3,0-4.2-2-4.2-4.3v-15c0-3-1.3-5.5-4.5-5.5c-3.3,0-6,2.5-6,6.5v14
		c0,2.3-1,4.3-4.3,4.3s-4.3-2-4.3-4.3v-23.2L151,241.5L151,241.5L151,241.5z"/>
	<path fill="#8ED6CE" d="M218.8,230.4h-10c-3,0-5.5-1.5-5.5-4.5c0-3,2.5-4.5,5.5-4.5h30.5c3,0,5.5,1.5,5.5,4.5c0,3-2.5,4.5-5.5,4.5
		h-10v33c0,3.3-2,5.3-5.3,5.3s-5.3-2-5.3-5.3v-33H218.8z"/>
	<path fill="#8ED6CE" d="M254.8,237.2c10.3,0,15.5,7,15.5,15.8c0,8.5-4,15.8-15.5,15.8s-15.5-7.5-15.5-15.8
		C239.3,244,244.5,237.2,254.8,237.2z M254.8,262.5c5,0,7.3-4.5,7.3-9.5c0-5.5-2.3-9.5-7.3-9.5s-7.3,4-7.3,9.5
		C247.5,257.9,249.8,262.5,254.8,262.5z"/>
	<path fill="#8ED6CE" d="M284.5,226c0-4.3,3-5.3,5.8-5.3h3c3.3,0,4.8,1.3,6,4.8l9.3,29.8h0.3l9-29.8c1-3.5,2.8-4.8,6-4.8h3
		c2.8,0,5.8,1,5.8,5.3v37.5c0,2.8-1.3,5.3-4.8,5.3s-4.7-2.5-4.7-5.3v-28.5h-0.3l-9.9,30.7c-0.8,2.3-2.3,3-4.5,3c-2.2,0-3.8-1-4.5-3
		l-9.8-30.8H294v28.8c0,2.8-1.3,5.3-4.8,5.3s-4.8-2.5-4.8-5.3L284.5,226L284.5,226L284.5,226z"/>
	<path fill="#8ED6CE" d="M354,237.2c10.3,0,15.5,7,15.5,15.8c0,8.5-4,15.8-15.5,15.8s-15.5-7.5-15.5-15.8
		C338.5,244,344,237.2,354,237.2z M354,262.5c5,0,7.3-4.5,7.3-9.5c0-5.5-2.3-9.5-7.3-9.5s-7.2,4-7.2,9.5
		C347,257.9,349,262.5,354,262.5z"/>
	<path fill="#8ED6CE" d="M375,241.5c0-2.5,1.3-4.3,3.8-4.3s3.8,1.8,3.8,4.3v1l0,0c2.3-3,5.5-5.2,10.3-5.2c5,0,10.5,2.5,10.5,11v16.3
		c0,2.3-1,4.3-4.3,4.3s-4.2-2-4.2-4.3v-14.9c0-3.5-1.8-5.8-5.3-5.8c-3,0-6.5,2.5-6.5,6.5v13.8c0,2.3-1,4.3-4.3,4.3
		c-3.3,0-4.3-2-4.3-4.3v-22.8L375,241.5L375,241.5L375,241.5z"/>
	<path fill="#8ED6CE" d="M417.3,254.5c0,4.5,3,7.8,7.8,7.8c6.3,0,6.3-4.3,9.8-4.3c2,0,3.5,1.8,3.5,3.3c0,5-8,7.5-13.3,7.5
		c-11.8,0-16.3-8-16.3-15.3c0-9.8,6-16.3,16-16.3c9.8,0,15.3,6.8,15.3,13.8c0,3-0.8,3.8-3.8,3.8h-19v-0.3L417.3,254.5L417.3,254.5z
		 M432,249.7c-0.5-3.8-3.3-6.8-7-6.8c-4.3,0-6.8,2.5-7.8,6.8H432z"/>
	<path fill="#8ED6CE" d="M456.5,260L456.5,260l5.3-19c0.5-2.3,1.8-3.8,4-3.8c3.3,0,4.2,2.8,4.2,3.8c0,0.8-0.3,1.5-0.8,2.8l-9.7,27.5
		c-2,5.8-4.3,8.8-9.5,8.8c-3.8,0-5.3-1.8-5.3-3.8c0-2.3,1.5-3.5,3.8-3.5h0.8c1,0,2.2,0,3-2.8l-8.8-25c-0.8-2-1-3-1-4
		c0-2.3,1.8-4,4-4s3.8,1.3,4.3,3.3L456.5,260z"/>
</g>
</svg>
