<?xml version="1.0" encoding="utf-8"?>
<!-- Generator: Adobe Illustrator 18.0.0, SVG Export Plug-In . SVG Version: 6.00 Build 0)  -->
<!DOCTYPE svg PUBLIC "-//W3C//DTD SVG 1.1//EN" "http://www.w3.org/Graphics/SVG/1.1/DTD/svg11.dtd">
<svg version="1.1" id="Layer_1" xmlns="http://www.w3.org/2000/svg" xmlns:xlink="http://www.w3.org/1999/xlink" x="0px" y="0px"
	 viewBox="0 0 500 300" enable-background="new 0 0 500 300" xml:space="preserve">
<g>
	<path fill="#7BCAB4" d="M34.8,133c0-4.8,2.5-6.3,6.3-6.3h17.5c12.5,0,15.8,7,15.8,12.8c0,5-3,10-8,11v0.3c5.5,0.8,6.3,4.8,6.3,9.5
		c0,5.3,1.5,7.3,1.5,9.5c0,2.5-2.5,4-5,4c-5.7,0-6.3-5.5-6.3-7.5c0-8-1.5-11.5-7.3-11.5H45v13.5c0,3.3-2,5.3-5.3,5.3s-5.3-2-5.3-5.3
		V133H34.8z M45.3,147.5h10.5c4,0,8-1,8-6.3c0-5-3-6.3-7.8-6.3H45.2C45.2,135,45.2,147.5,45.3,147.5z"/>
	<path fill="#7BCAB4" d="M94.8,142.5c10.3,0,15.5,7,15.5,15.8c0,8.5-4,15.8-15.5,15.8s-15.5-7.5-15.5-15.8
		C79.3,149.3,84.8,142.5,94.8,142.5z M94.8,167.8c5,0,7.3-4.5,7.3-9.5c0-5.5-2.3-9.5-7.3-9.5s-7.3,4-7.3,9.5
		C87.8,163.3,89.8,167.8,94.8,167.8z"/>
	<path fill="#7BCAB4" d="M130,142.5c10.3,0,15.5,7,15.5,15.8c0,8.5-4,15.8-15.5,15.8s-15.5-7.5-15.5-15.8
		C114.5,149.3,120,142.5,130,142.5z M130,167.8c5,0,7.3-4.5,7.3-9.5c0-5.5-2.3-9.5-7.3-9.5s-7.3,4-7.3,9.5
		C122.8,163.3,125,167.8,130,167.8z"/>
	<path fill="#7BCAB4" d="M151,146.8c0-2.5,1.5-4.3,4-4.3s4,1.8,4,4.3v1l0,0c2.3-3.3,5.8-5.2,10.3-5.2c3,0,6.5,1.3,8,5.2
		c2.3-3.3,5.3-5.2,10-5.2c5.8,0,10.5,2.7,10.5,10.2V170c0,2.3-1,4.3-4.2,4.3c-3.3,0-4.2-2-4.2-4.3v-15c0-3-1.3-5.5-4.5-5.5
		s-6,2.5-6,6.5v14c0,2.3-1,4.3-4.3,4.3c-3.3,0-4.2-2-4.2-4.3v-15c0-3-1.3-5.5-4.5-5.5c-3.3,0-6,2.5-6,6.5v14c0,2.3-1,4.3-4.3,4.3
		s-4.3-2-4.3-4.3v-23.2H151z"/>
	<path fill="#7BCAB4" d="M218.8,135.8h-10c-3,0-5.5-1.5-5.5-4.5s2.5-4.5,5.5-4.5h30.5c3,0,5.5,1.5,5.5,4.5s-2.5,4.5-5.5,4.5h-10v33
		c0,3.3-2,5.3-5.3,5.3c-3.3,0-5.3-2-5.3-5.3V135.8z"/>
	<path fill="#7BCAB4" d="M254.8,142.5c10.3,0,15.5,7,15.5,15.8c0,8.5-4,15.8-15.5,15.8s-15.5-7.5-15.5-15.8
		C239.3,149.3,244.5,142.5,254.8,142.5z M254.8,167.8c5,0,7.3-4.5,7.3-9.5c0-5.5-2.3-9.5-7.3-9.5s-7.3,4-7.3,9.5
		C247.5,163.3,249.8,167.8,254.8,167.8z"/>
	<path fill="#7BCAB4" d="M284.5,131.3c0-4.3,3-5.3,5.8-5.3h3c3.3,0,4.8,1.3,6,4.8l9.3,29.8h0.3l9-29.8c1-3.5,2.8-4.8,6-4.8h3
		c2.8,0,5.8,1,5.8,5.3v37.5c0,2.8-1.3,5.3-4.8,5.3c-3.5,0-4.7-2.5-4.7-5.3v-28.5h-0.3L313,171c-0.8,2.3-2.3,3-4.5,3s-3.8-1-4.5-3
		l-9.8-30.8H294V169c0,2.8-1.3,5.3-4.8,5.3s-4.8-2.5-4.8-5.3V131.3L284.5,131.3z"/>
	<path fill="#7BCAB4" d="M354,142.5c10.3,0,15.5,7,15.5,15.8c0,8.5-4,15.8-15.5,15.8c-11.5,0-15.5-7.5-15.5-15.8
		C338.5,149.3,344,142.5,354,142.5z M354,167.8c5,0,7.3-4.5,7.3-9.5c0-5.5-2.3-9.5-7.3-9.5s-7.2,4-7.2,9.5
		C347,163.3,349,167.8,354,167.8z"/>
	<path fill="#7BCAB4" d="M375,146.8c0-2.5,1.3-4.3,3.8-4.3s3.8,1.8,3.8,4.3v1l0,0c2.3-3,5.5-5.2,10.3-5.2c5,0,10.5,2.5,10.5,11v16.3
		c0,2.3-1,4.3-4.3,4.3c-3.3,0-4.2-2-4.2-4.3V155c0-3.5-1.8-5.8-5.3-5.8c-3,0-6.5,2.5-6.5,6.5v13.8c0,2.3-1,4.3-4.3,4.3
		s-4.3-2-4.3-4.3v-22.8H375z"/>
	<path fill="#7BCAB4" d="M417.3,159.8c0,4.5,3,7.8,7.8,7.8c6.3,0,6.3-4.3,9.8-4.3c2,0,3.5,1.8,3.5,3.3c0,5-8,7.5-13.3,7.5
		c-11.8,0-16.3-8-16.3-15.3c0-9.8,6-16.3,16-16.3c9.8,0,15.3,6.8,15.3,13.8c0,3-0.8,3.8-3.8,3.8h-19V159.8z M432,155
		c-0.5-3.8-3.3-6.8-7-6.8c-4.3,0-6.8,2.5-7.8,6.8H432z"/>
	<path fill="#7BCAB4" d="M456.5,165.3L456.5,165.3l5.3-19c0.5-2.3,1.8-3.8,4-3.8c3.3,0,4.2,2.8,4.2,3.8c0,0.8-0.3,1.5-0.8,2.8
		l-9.7,27.5c-2,5.8-4.3,8.8-9.5,8.8c-3.8,0-5.3-1.8-5.3-3.8c0-2.3,1.5-3.5,3.8-3.5h0.8c1,0,2.2,0,3-2.8l-8.8-25c-0.8-2-1-3-1-4
		c0-2.3,1.8-4,4-4c2.2,0,3.8,1.3,4.3,3.3L456.5,165.3z"/>
</g>
</svg>
