<?xml version="1.0" encoding="utf-8"?>
<!-- Generator: Adobe Illustrator 18.0.0, SVG Export Plug-In . SVG Version: 6.00 Build 0)  -->
<!DOCTYPE svg PUBLIC "-//W3C//DTD SVG 1.1//EN" "http://www.w3.org/Graphics/SVG/1.1/DTD/svg11.dtd">
<svg version="1.1" id="Layer_1" xmlns="http://www.w3.org/2000/svg" xmlns:xlink="http://www.w3.org/1999/xlink" x="0px" y="0px"
	 viewBox="50 850 100 100" enable-background="new 50 850 100 100" xml:space="preserve">
<g>
	<path fill="#8ED6CE" d="M100.6,863.4c-19,0-34.5,15.5-34.5,34.5c0,13.2,7.6,25.2,19.3,31v0l15.5,11.2l0.2,0.1l0.2,0
		c0.2,0,0.7,0.3,1.5,0.3c0.5,0,0.8-0.1,1.3-0.3c1.3-0.7,1.5-2.2,1.6-2.6v-36v-0.2c0-0.5-0.2-1.5-0.6-2.1c-0.3-0.6-1-1.4-1.4-1.9
		l-0.1-0.1l-13.4-9.6h16.3c2.1,0,3.8,1.7,3.8,3.8v28.6c0,2,0.8,4.6,3.1,6.1c1.3,0.8,3.6,1.5,6.8-0.1c8.9-4.3,14.8-15.7,14.8-28.3
		C135.1,878.9,119.6,863.4,100.6,863.4z M101.9,901c0,0.1,0.2,0.6,0.2,0.9v34.8l-13.2-9.5v-35.9l12.2,8.9
		C101.5,900.4,101.8,900.9,101.9,901z M118.7,923c-1,0.5-2.4,0.9-3.5,0.3c-1-0.6-1.4-2-1.4-3.1v-28.6c0-4-3.3-7.3-7.3-7.3h-21v0h0
		v40.6c-9.7-5.5-15.8-15.8-15.8-27c0-17.1,13.9-31,31-31s31,13.9,31,31C131.6,909.2,126.4,919.3,118.7,923z"/>
	<circle fill="#8ED6CE" cx="98.9" cy="917.3" r="1.4"/>
</g>
</svg>
