<?xml version="1.0" encoding="utf-8"?>
<!-- Generator: Adobe Illustrator 18.0.0, SVG Export Plug-In . SVG Version: 6.00 Build 0)  -->
<!DOCTYPE svg PUBLIC "-//W3C//DTD SVG 1.1//EN" "http://www.w3.org/Graphics/SVG/1.1/DTD/svg11.dtd">
<svg version="1.1" id="Layer_1" xmlns="http://www.w3.org/2000/svg" xmlns:xlink="http://www.w3.org/1999/xlink" x="0px" y="0px"
	 viewBox="0 0 50 50" enable-background="new 0 0 50 50" xml:space="preserve">
<path fill="#FDE500" d="M42.3-0.1H7.7c-4.3,0-7.9,3.5-7.9,7.9v34.5c0,4.3,3.5,7.9,7.9,7.9h34.5c4.3,0,7.9-3.5,7.9-7.9V7.7
	C50.1,3.4,46.6-0.1,42.3-0.1z"/>
<g>
	<path fill="#342226" d="M20.7,19.4l-1.5,4.5h3L20.7,19.4C20.7,19.3,20.7,19.3,20.7,19.4z"/>
	<path fill="#342226" d="M25,6.1c-11.3,0-20.5,7.3-20.5,16.2c0,5.8,3.8,10.8,9.5,13.7l-1.9,7.2c-0.1,0.2,0,0.4,0.1,0.6
		c0.1,0.1,0.3,0.2,0.4,0.2c0.1,0,0.3,0,0.4-0.1l8.3-5.6c1.2,0.2,2.4,0.3,3.7,0.3c11.3,0,20.5-7.3,20.5-16.2
		C45.5,13.3,36.3,6.1,25,6.1z M14.7,26.6c0,0.6-0.4,1-1,1c-0.6,0-1-0.4-1-1v-7.1h-2.1c-0.6,0-0.9-0.5-0.9-0.9c0-0.4,0.3-0.9,0.9-0.9
		h6.1c0.6,0,0.9,0.5,0.9,0.9c0,0.4-0.2,0.9-0.9,0.9h-2.1V26.6z M24.1,27.6c-0.5,0-0.8-0.2-1-0.7l-0.4-1.3h-4.1l-0.4,1.3
		c-0.2,0.5-0.5,0.7-0.9,0.7c-0.5,0-1-0.4-1-0.9c0-0.2,0.1-0.4,0.1-0.4l2.8-7.5c0.2-0.6,0.7-1.1,1.5-1.1c0.7,0,1.2,0.4,1.5,1.1
		l2.8,7.5c0.1,0.2,0.1,0.4,0.1,0.5C25,27.2,24.6,27.6,24.1,27.6z M31.7,26.6c0,0.4-0.3,0.9-0.9,0.9h-3.7c-0.6,0-1-0.4-1-1.1v-7.8
		c0-0.6,0.4-1,1-1c0.6,0,1,0.4,1,1v7.1h2.7c0.3,0,0.5,0.1,0.7,0.3C31.6,26.1,31.7,26.4,31.7,26.6z M39.8,26.8
		c-0.1,0.7-0.8,0.8-1,0.8c-0.1,0-0.1,0-0.2,0c-0.4,0-0.6-0.3-0.9-0.8l-2.6-3.5L34.5,24v2.6c0,0.5-0.4,0.9-1,0.9c-0.6,0-1-0.4-1-0.9
		v-8.1c0-0.6,0.4-1,1-1c0.6,0,1,0.4,1,1v3.1l3.5-3.6c0.2-0.2,0.4-0.4,0.8-0.4c0.5,0,1,0.3,0.9,0.9c0,0.3-0.2,0.4-0.5,0.8
		c-0.1,0.1-0.2,0.2-0.2,0.3l-2.4,2.4l2.8,3.7C39.7,26.1,39.9,26.4,39.8,26.8z"/>
</g>
</svg>
